<?xml version="1.0" encoding="utf-8"?>
<!-- Generator: Adobe Illustrator 22.1.0, SVG Export Plug-In . SVG Version: 6.00 Build 0)  -->
<svg version="1.1" xmlns="http://www.w3.org/2000/svg" xmlns:xlink="http://www.w3.org/1999/xlink" x="0px" y="0px"
	 viewBox="0 0 841.9 595.3" style="enable-background:new 0 0 841.9 595.3;" xml:space="preserve">
<style type="text/css">
	.st0{fill:#FFFFFF;}
	.st1{fill-rule:evenodd;clip-rule:evenodd;fill:url(#SVGID_1_);}
	.st2{fill:#6E2E27;}
	.st3{fill-rule:evenodd;clip-rule:evenodd;fill:#6E2E27;}
	.st4{fill:none;stroke:#6E2E27;stroke-width:2;stroke-miterlimit:10;}
	.st5{fill:none;stroke:#6E2E27;stroke-miterlimit:10;}
	.st6{fill:none;stroke:#6E2E27;stroke-width:0.5;stroke-miterlimit:10;}
</style>
<g id="Layer_2">
	<rect x="217.4" y="25.4" class="st0" width="400.5" height="541.5"/>
</g>
<g id="Layer_1">
	<g>
		
			<radialGradient id="SVGID_1_" cx="750.8766" cy="411.2432" r="289.4964" gradientTransform="matrix(0.6253 0 0 0.8761 -51.8625 -64.1488)" gradientUnits="userSpaceOnUse">
			<stop  offset="0" style="stop-color:#F7F2EA"/>
			<stop  offset="0.35" style="stop-color:#F7F2EA"/>
			<stop  offset="1" style="stop-color:#E3D5C3"/>
		</radialGradient>
		<polygon class="st1" points="236.6,42.5 598.7,42.5 598.7,549.8 236.6,549.8 236.6,42.5 		"/>
		<g>
			<g>
				<path class="st2" d="M411,319.1c-18,0-67.8,0-68.9,1c1.1,0.9,50.1,0.9,68.5,0.9C410.7,320.3,410.9,319.6,411,319.1L411,319.1z
					 M436.6,319.1c18,0,67.8,0,68.9,1c-1.1,0.9-50.1,0.9-68.5,0.9C436.9,320.3,436.8,319.6,436.6,319.1L436.6,319.1z"/>
				<g>
					<path class="st3" d="M413,323.6c-0.8,0.2-1.6-0.6-1.4-2.1c0.4-2.4,3.1-4.5,6.9-3.7c1.2,0.3,2.4,1,3.3,1.9
						c1.1-0.6,1.7-1.7,1.9-3.1c0.2,1.4,0.8,2.5,1.9,3.1c0.9-0.9,2.1-1.6,3.3-1.9c3.9-0.8,6.5,1.3,6.9,3.7c0.2,1.4-0.6,2.2-1.4,2.1
						c-0.1-2.4-2.6-5-6-4.5c-1.3,0.2-2.6,0.7-3.5,1.6c-0.5-0.4-0.9-1-1.3-1.6c-0.3,0.7-0.7,1.2-1.3,1.6c-1-0.9-2.3-1.4-3.5-1.6
						C415.6,318.6,413.1,321.2,413,323.6L413,323.6z M423.8,322.4c0.2-0.4,0.5-0.8,0.8-1.2c-0.3-0.4-0.6-0.9-0.8-1.4
						c-0.2,0.5-0.4,1-0.8,1.4C423.3,321.5,423.6,321.9,423.8,322.4L423.8,322.4z"/>
					<path class="st3" d="M423.8,325.4c1.9-5.5,7.4-5.6,8.3-1.9c-0.8-0.5-2.1-0.5-2.6,0.4c-1,1.4,0.5,3.2,2.4,3c2-0.2,3-2.4,2-4.5
						c-2.4-4.9-9.4-2.9-10.1,1.4c-0.7-4.3-7.7-6.4-10.1-1.4c-1,2.1,0,4.2,2,4.5c1.9,0.2,3.4-1.6,2.4-3c-0.6-0.9-1.8-0.9-2.6-0.4
						C416.4,319.8,421.9,319.9,423.8,325.4L423.8,325.4z"/>
				</g>
			</g>
			<path class="st3" d="M349.9,318.5c0.8,0,1.5,0.7,1.5,1.5c0,0.8-0.7,1.5-1.5,1.5c-0.8,0-1.5-0.7-1.5-1.5
				C348.4,319.2,349.1,318.5,349.9,318.5L349.9,318.5z"/>
			<path class="st3" d="M406.9,318.1c1.1,0,2,0.9,2,2c0,1.1-0.9,2-2,2c-1.1,0-2-0.9-2-2C405,319,405.8,318.1,406.9,318.1
				L406.9,318.1z"/>
			<path class="st3" d="M497.7,318.5c-0.8,0-1.5,0.7-1.5,1.5c0,0.8,0.7,1.5,1.5,1.5c0.8,0,1.5-0.7,1.5-1.5
				C499.2,319.2,498.6,318.5,497.7,318.5L497.7,318.5z"/>
			<path class="st3" d="M440.7,318.1c-1.1,0-2,0.9-2,2c0,1.1,0.9,2,2,2c1.1,0,2-0.9,2-2C442.7,319,441.8,318.1,440.7,318.1
				L440.7,318.1z"/>
		</g>
		<g>
			<path class="st2" d="M331.5,398.2c4.2-2,4.5-8.5,0.5-10.3c-4.2-1.9-7.1,3.6-4.4,6c1.3,1.2,3.5,1,4.2-1.1c0.3-0.7,0.1-1.6-0.4-2.2
				c-0.6-0.6-1.4-0.5-1.8,0.2c-0.4,0.7-0.3,1.8,0.3,2.4c0.1,0.2,0.3,0.3,0.5,0.3c-1.2,0.8-3.2-0.2-3.1-2.1c0.1-3.8,5.8-4.4,6.7,0.5
				c0.5,2.8-1.4,5.5-3.5,5.8c-2.1,0.3-2.9-1.4-4.5-1.6c-2.6-0.3-4.9,0.9-6.9,2.1c2,1.2,4.2,2.4,6.9,2.1c1.6-0.2,2.5-1.8,4.5-1.6
				c2.1,0.3,4,3,3.5,5.8c-0.9,4.9-6.6,4.3-6.7,0.5c-0.1-1.9,1.9-2.9,3.1-2.1c-0.2,0.1-0.3,0.2-0.5,0.3c-0.6,0.6-0.7,1.7-0.3,2.4
				c0.4,0.7,1.2,0.8,1.8,0.2c0.5-0.5,0.7-1.5,0.4-2.2c-0.7-2.1-2.9-2.3-4.2-1.1c-2.8,2.4,0.2,7.9,4.4,6
				C336,406.8,335.7,400.2,331.5,398.2L331.5,398.2z M336.7,396.1L336.7,396.1c-1,0-1.8,1-1.8,2.2c0,1.2,0.8,2.2,1.8,2.2
				c1,0,1.8-1,1.8-2.2C338.5,397.1,337.7,396.1,336.7,396.1L336.7,396.1z"/>
			<polygon class="st3" points="353.4,397.6 399.2,397.6 399.2,398.9 353.4,398.9 353.4,397.6 			"/>
			<path class="st3" d="M423.8,398.5c-0.3,0.3-0.5,0.5-0.8,0.8l0.8,0.7l0.8-0.7C424.3,399,424.1,398.8,423.8,398.5L423.8,398.5z
				 M422.6,399.6c-2.3,1.8-6,3-8.8,2.6c-2.5-0.4-4.4-2.1-4.4-3.9c0-1.8,1.6-3.7,4.3-4.1c2.9-0.5,6.7,0.9,8.9,2.6l0.8-0.7
				c-3.7-3.5-3.4-7.2-1.8-8.8c1.1-1.1,2.9-1.3,4.3,0.1c0.9,0.9,1.2,2.5,1,3.7c-0.2,1.5-1.1,3.3-2.9,5l0.8,0.8c2.3-1.8,6.1-3,8.9-2.6
				c2.6,0.4,4.3,2.2,4.3,3.9c0,1.9-1.6,3.9-4.6,4.1c-2.8,0.2-6.5-1-8.6-2.7l-0.8,0.7c3.7,3.4,3.4,7.1,1.8,8.7
				c-1.1,1.1-2.9,1.4-4.4,0c-0.9-0.9-1.2-2.5-1.1-3.7c0.2-1.5,1.1-3.3,2.9-5L422.6,399.6L422.6,399.6z M423,397.1
				c0.3,0.2,0.6,0.5,0.8,0.8c0.3-0.3,0.5-0.5,0.8-0.8l-0.8-0.7L423,397.1L423,397.1z M429.5,395c-1.5,0.4-2.9,1.2-4.2,2.1l0.9,0.8
				c5.9-3.5,9.7-0.8,8.2,1.2c-0.7,0.9-2.5,1.1-3.7,1c-1.3-0.1-2.8-0.7-4.5-1.7l-0.9,0.8c1.2,0.9,2.7,1.7,4.2,2.2
				c3,0.9,7.2-0.1,7.2-3.3C436.7,395,432.5,394.1,429.5,395L429.5,395z M425,397.4c-0.3,0.2-0.6,0.5-0.8,0.8
				c0.3,0.3,0.5,0.5,0.8,0.8l0.9-0.8L425,397.4L425,397.4z M418.2,401.4c1.4-0.4,2.9-1.2,4.2-2.1l-0.9-0.8c-5.9,3.5-9.7,0.8-8.2-1.2
				c0.7-0.9,2.5-1.1,3.7-1c1.3,0.1,2.8,0.7,4.5,1.7l0.9-0.8c-1.5-1.2-3.4-2.1-5.3-2.4c-2.8-0.5-6.4,0.9-6.2,3.6
				C411.1,401,415.1,402.3,418.2,401.4L418.2,401.4z M422.7,399c0.3-0.2,0.6-0.5,0.8-0.8c-0.3-0.3-0.5-0.5-0.8-0.8l-0.9,0.8
				L422.7,399L422.7,399z M425.6,408.3c0.8-0.8,1.1-1.9,0.9-3c-0.2-1.4-1-3.1-2.8-4.7C417.9,406,422.7,411.1,425.6,408.3
				L425.6,408.3z M426.6,398.2c6.5,3.8,8.9-0.5,5.9-1.4C430.8,396.3,428.4,397.1,426.6,398.2L426.6,398.2z M421,398.2
				c-6.5-3.8-8.9,0.5-5.9,1.4C416.8,400.1,419.2,399.2,421,398.2L421,398.2z M422,388c-0.8,0.8-1.1,1.9-0.9,3c0.2,1.4,1,3.1,2.8,4.7
				C429.7,390.3,424.9,385.2,422,388L422,388z"/>
			<path class="st2" d="M516.1,398.2c-4.2-2-4.5-8.5-0.5-10.3c4.2-1.9,7.1,3.6,4.4,6c-1.3,1.2-3.5,1-4.2-1.1
				c-0.3-0.7-0.1-1.6,0.4-2.2c0.6-0.6,1.4-0.5,1.8,0.2c0.4,0.7,0.3,1.8-0.3,2.4c-0.1,0.2-0.3,0.3-0.5,0.3c1.2,0.8,3.2-0.2,3.1-2.1
				c-0.1-3.8-5.8-4.4-6.7,0.5c-0.5,2.8,1.4,5.5,3.5,5.8c2.1,0.3,2.9-1.4,4.5-1.6c2.6-0.3,4.9,0.9,6.9,2.1c-2,1.2-4.2,2.4-6.9,2.1
				c-1.6-0.2-2.5-1.8-4.5-1.6c-2.1,0.3-4,3-3.5,5.8c0.9,4.9,6.6,4.3,6.7,0.5c0.1-1.9-1.9-2.9-3.1-2.1c0.2,0.1,0.3,0.2,0.5,0.3
				c0.6,0.6,0.7,1.7,0.3,2.4c-0.4,0.7-1.2,0.8-1.8,0.2c-0.5-0.5-0.7-1.5-0.4-2.2c0.7-2.1,2.9-2.3,4.2-1.1c2.8,2.4-0.2,7.9-4.4,6
				C511.7,406.8,512,400.2,516.1,398.2L516.1,398.2z M511,396.1L511,396.1c1,0,1.8,1,1.8,2.2c0,1.2-0.8,2.2-1.8,2.2
				c-1,0-1.8-1-1.8-2.2C509.1,397.1,510,396.1,511,396.1L511,396.1z"/>
			<polygon class="st3" points="494.2,397.6 448.4,397.6 448.4,398.9 494.2,398.9 494.2,397.6 			"/>
		</g>
		<g>
			<path class="st3" d="M365.2,165.4c-0.3,0-0.5,0.2-0.5,0.5c0,0.3,0.2,0.5,0.5,0.5c0.3,0,0.5-0.2,0.5-0.5
				C365.7,165.6,365.5,165.4,365.2,165.4L365.2,165.4z M367.7,170L367.7,170l48.7-0.9v-0.2l-48.7-0.9c-0.1-1.2-0.4-1.8-1-2.9
				c0.3,1.4,0.4,2.7,0.1,3.9c0.3,1.2,0.2,2.5-0.1,3.9C367.3,171.8,367.6,171.2,367.7,170L367.7,170z M365.2,172.6L365.2,172.6
				c-0.3,0-0.5-0.2-0.5-0.5c0-0.3,0.2-0.5,0.5-0.5c0.3,0,0.5,0.2,0.5,0.5C365.7,172.3,365.5,172.6,365.2,172.6L365.2,172.6z
				 M342.7,169L342.7,169c3.3,0.4,7.2,0.8,10.2,3.7c0.1-2.2,3-3,4.2-1.6c1.5,1.7,0.1,3.8-1.6,4.1c4,1.1,7-3.8,3.2-6.2
				c3.8-2.4,0.8-7.4-3.2-6.2c1.7,0.3,3.1,2.5,1.6,4.1c-1.2,1.4-4.1,0.6-4.2-1.6C349.9,168.1,346,168.6,342.7,169L342.7,169z
				 M355.3,173.8L355.3,173.8c-0.6,0-1.1-0.5-1.1-1.1c0-0.6,0.5-1.1,1.1-1.1c0.6,0,1.1,0.5,1.1,1.1
				C356.4,173.4,355.9,173.8,355.3,173.8L355.3,173.8z M362,169L362,169c1.6,0.8,2.3,2.1,2.1,3.9c0.7,0.4,1.4,0.4,2.1,0.1
				c0.4-1.6,0.4-2.9,0-4c0.4-1.1,0.4-2.4,0-4c-0.7-0.3-1.4-0.3-2.1,0.1C364.3,166.9,363.6,168.2,362,169L362,169z M365,169L365,169
				c0,0.3-0.2,0.5-0.5,0.5c-0.3,0-0.5-0.2-0.5-0.5c0-0.3,0.2-0.5,0.5-0.5C364.8,168.5,365,168.7,365,169L365,169z M365.1,171
				L365.1,171c-0.3,0-0.5-0.2-0.5-0.5c0-0.3,0.2-0.5,0.5-0.5c0.3,0,0.5,0.2,0.5,0.5C365.6,170.8,365.3,171,365.1,171L365.1,171z
				 M355.3,164.1L355.3,164.1c-0.6,0-1.1,0.5-1.1,1.1s0.5,1.1,1.1,1.1c0.6,0,1.1-0.5,1.1-1.1S355.9,164.1,355.3,164.1L355.3,164.1z
				 M365.1,166.9L365.1,166.9c-0.3,0-0.5,0.2-0.5,0.5c0,0.3,0.2,0.5,0.5,0.5c0.3,0,0.5-0.2,0.5-0.5
				C365.6,167.2,365.3,166.9,365.1,166.9L365.1,166.9z"/>
			<path class="st3" d="M425.1,166.7c-1.2,0-2.3,1-2.3,2.3c0,1.2,1,2.3,2.3,2.3c1.2,0,2.3-1,2.3-2.3
				C427.4,167.7,426.3,166.7,425.1,166.7L425.1,166.7z"/>
			<path class="st3" d="M421.7,167.4c-5.4,0.9-11.6,1.2-17.7,1.6c6.1,0.4,12.3,0.7,17.7,1.6C421,169.8,421,168.2,421.7,167.4
				L421.7,167.4z"/>
			<path class="st3" d="M428.5,167.4c5.4,0.9,11.6,1.2,17.7,1.6c-6.1,0.4-12.3,0.7-17.7,1.6C429.2,169.8,429.2,168.2,428.5,167.4
				L428.5,167.4z"/>
			<path class="st3" d="M484.9,165.4c0.3,0,0.5,0.2,0.5,0.5c0,0.3-0.2,0.5-0.5,0.5c-0.3,0-0.5-0.2-0.5-0.5
				C484.4,165.6,484.6,165.4,484.9,165.4L484.9,165.4z M482.4,170L482.4,170l-49.3-0.9v-0.2l49.3-0.9c0.1-1.2,0.4-1.8,1-2.9
				c-0.3,1.4-0.4,2.7-0.1,3.9c-0.3,1.2-0.2,2.5,0.1,3.9C482.8,171.8,482.5,171.2,482.4,170L482.4,170z M484.9,172.6L484.9,172.6
				c0.3,0,0.5-0.2,0.5-0.5c0-0.3-0.2-0.5-0.5-0.5c-0.3,0-0.5,0.2-0.5,0.5C484.4,172.3,484.6,172.6,484.9,172.6L484.9,172.6z
				 M507.4,169L507.4,169c-3.3,0.4-7.2,0.8-10.2,3.7c-0.1-2.2-3-3-4.2-1.6c-1.5,1.7-0.1,3.8,1.6,4.1c-4,1.1-7-3.8-3.2-6.2
				c-3.8-2.4-0.8-7.4,3.2-6.2c-1.7,0.3-3.1,2.5-1.6,4.1c1.2,1.4,4.1,0.6,4.2-1.6C500.2,168.1,504.1,168.6,507.4,169L507.4,169z
				 M494.8,173.8L494.8,173.8c0.6,0,1.1-0.5,1.1-1.1c0-0.6-0.5-1.1-1.1-1.1c-0.6,0-1.1,0.5-1.1,1.1
				C493.7,173.4,494.2,173.8,494.8,173.8L494.8,173.8z M488.1,169L488.1,169c-1.6,0.8-2.3,2.1-2.1,3.9c-0.7,0.4-1.4,0.4-2.1,0.1
				c-0.4-1.6-0.4-2.9,0-4c-0.4-1.1-0.4-2.4,0-4c0.7-0.3,1.4-0.3,2.1,0.1C485.8,166.9,486.5,168.2,488.1,169L488.1,169z M485.1,169
				L485.1,169c0,0.3,0.2,0.5,0.5,0.5c0.3,0,0.5-0.2,0.5-0.5c0-0.3-0.2-0.5-0.5-0.5C485.3,168.5,485.1,168.7,485.1,169L485.1,169z
				 M485,171L485,171c0.3,0,0.5-0.2,0.5-0.5c0-0.3-0.2-0.5-0.5-0.5c-0.3,0-0.5,0.2-0.5,0.5C484.5,170.8,484.8,171,485,171L485,171z
				 M494.8,164.1L494.8,164.1c0.6,0,1.1,0.5,1.1,1.1s-0.5,1.1-1.1,1.1c-0.6,0-1.1-0.5-1.1-1.1S494.2,164.1,494.8,164.1L494.8,164.1z
				 M485,166.9L485,166.9c0.3,0,0.5,0.2,0.5,0.5c0,0.3-0.2,0.5-0.5,0.5c-0.3,0-0.5-0.2-0.5-0.5C484.5,167.2,484.8,166.9,485,166.9
				L485,166.9z"/>
		</g>
		<g>
			<path class="st3" d="M306.1,251.8c-2.9-0.5-5.4-0.6-5.8-0.5c0.9,1.6,1.1,2.8-1.3,2.9c-2.4,0.1-2.7-1.3-2.2-3.3
				c-3,0.7-5.5,0.7-5.5-0.7c0-1.4,2.6-1.4,5.5-0.7c-0.5-2-0.2-3.4,2.2-3.3c2.4,0.1,2.2,1.3,1.3,2.9c0.4,0,2.6,0,5.4-0.4
				c0.4-0.8,1.3-1.4,1.1-1.8c-2.6,0.6-4.7,0.7-4.8-0.8c-0.1-1.5,2.2-1.7,5.6-1.4c-1.1-1.9-1.2-3.6,1.2-3.6c2.4,0,2.3,1.7,1.2,3.6
				c3.3-0.3,5.7-0.1,5.6,1.4c-0.1,1.6-2.2,1.5-4.8,0.8c-0.2,0.7,0.1,1.3,0.7,1.8c3.1,0.1,9.8,0.3,12.2-0.5l0.9,0.6
				c66.7,1.1,131.7,1.1,198.4,0l0.9-0.6c2.4,0.8,9.1,0.6,12.2,0.5c0.6-0.5,1-1,0.7-1.8c-2.6,0.6-4.7,0.7-4.8-0.8
				c-0.1-1.5,2.2-1.7,5.6-1.4c-1.1-1.9-1.2-3.6,1.2-3.6c2.4,0,2.3,1.7,1.2,3.6c3.3-0.3,5.7-0.1,5.6,1.4c-0.1,1.6-2.2,1.5-4.8,0.8
				c-0.1,0.4,0.8,1,1.1,1.8c2.9,0.4,5,0.5,5.4,0.4c-0.9-1.6-1.1-2.8,1.3-2.9c2.4-0.1,2.7,1.3,2.2,3.3c3-0.7,5.5-0.7,5.5,0.7
				c0,1.4-2.6,1.4-5.5,0.7c0.5,2,0.2,3.4-2.2,3.3c-2.4-0.1-2.2-1.3-1.3-2.9c-0.4,0-2.9,0.1-5.8,0.5c-0.4,0.9-0.9,1.3-0.8,1.7
				c2.6-0.6,4.7-0.7,4.8,0.8c0.1,1.5-2.2,1.7-5.6,1.4c1.1,1.9,1.2,3.6-1.2,3.6c-2.4,0-2.3-1.7-1.2-3.6c-3.3,0.3-5.7,0.1-5.6-1.4
				c0.1-1.6,2.2-1.5,4.8-0.8c0.2-0.7-0.1-1.3-0.7-1.8c-3.1-0.1-9.8-0.3-12.2,0.5l-0.9-0.6c-66.7-1.1-131.7-1.2-198.4,0l-0.9,0.6
				c-2.4-0.8-9.1-0.6-12.2-0.5c-0.6,0.5-0.9,1-0.7,1.8c2.6-0.6,4.7-0.7,4.8,0.8c0.1,1.5-2.2,1.7-5.6,1.4c1.1,1.9,1.2,3.6-1.2,3.6
				c-2.4,0-2.3-1.7-1.2-3.6c-3.3,0.3-5.7,0.1-5.6-1.4c0.1-1.6,2.2-1.5,4.8-0.8C307,253.1,306.5,252.7,306.1,251.8L306.1,251.8z
				 M495.5,251.3c0.6,0,1.2-0.5,1.2-1.2c0-0.6-0.5-1.2-1.2-1.2c-0.7,0-1.2,0.5-1.2,1.2C494.4,250.7,494.9,251.3,495.5,251.3
				L495.5,251.3z M352.1,251.3c-0.7,0-1.2-0.5-1.2-1.2c0-0.7,0.5-1.2,1.2-1.2c0.6,0,1.2,0.5,1.2,1.2
				C353.2,250.7,352.7,251.3,352.1,251.3L352.1,251.3z"/>
			<g>
				<g>
					<path class="st2" d="M385,240.5c1.8-1.1,1.9-3.5,0.4-4.8c-2.3-2.1-6-0.1-6.1,2.9c-0.2,4.3,5.1,10.3,17.1,5.4
						c9.2-3.8,19.7-13.8,27.1-7.2c5.6,4.9-0.4,13.6-5.4,11.1c-4.5-2.3-0.4-7.5,2.5-5.3c1.5,1.2,1.2,2,1.1,2.9
						c0.5-0.3,0.9-2.2-0.8-3.4c-0.6-0.4-1.4-0.9-2.6-0.7c-4.9,0.8-4.4,7.8,1.9,7.6c5.4-0.1,8.9-8.7,3.2-13.3
						c-10.9-8.7-22.4,8.9-34.7,9.4c-9.2,0.3-10.4-9.4-5.5-9.5c0.8,0,1.4,0.2,1.9,0.7h0C387.1,238.4,385.3,240,385,240.5L385,240.5z"
						/>
					<path class="st2" d="M467.6,240.5c-1.8-1.1-1.9-3.5-0.4-4.8c2.3-2.1,6-0.1,6.1,2.9c0.2,4.3-5.1,10.3-17.1,5.4
						c-9.2-3.8-19.7-13.8-27.1-7.2c-5.6,4.9,0.4,13.6,5.4,11.1c4.5-2.3,0.4-7.5-2.5-5.3c-1.5,1.2-1.2,2-1.1,2.9
						c-0.5-0.3-0.9-2.2,0.8-3.4c0.6-0.4,1.4-0.9,2.6-0.7c4.9,0.8,4.4,7.8-1.9,7.6c-5.4-0.1-8.9-8.7-3.2-13.3
						c10.9-8.7,22.4,8.9,34.7,9.4c9.2,0.3,10.4-9.4,5.5-9.5c-0.8,0-1.4,0.2-1.9,0.7h0C465.5,238.4,467.2,240,467.6,240.5
						L467.6,240.5z"/>
				</g>
				<g>
					<path class="st2" d="M430,240.8c1.2,0.7,1.2,2.2,0.2,3.1c-1.5,1.4-3.9,0.1-4-1.9c-0.1-2.8,3.3-6.7,11.1-3.5
						c6,2.4,12.8,9,17.7,4.7c3.6-3.2-0.3-8.9-3.5-7.2c-3,1.5-0.3,4.9,1.6,3.4c1-0.8,0.8-1.3,0.7-1.9c0.4,0.2,0.6,1.4-0.5,2.2
						c-0.4,0.3-0.9,0.6-1.7,0.5c-3.2-0.5-2.9-5.1,1.3-5c3.5,0.1,5.8,5.7,2.1,8.7c-7.1,5.6-14.6-5.8-22.6-6.1c-6-0.2-6.8,6.1-3.6,6.2
						c0.5,0,0.9-0.2,1.2-0.4h0C431.4,242.2,430.3,241.1,430,240.8L430,240.8z"/>
					<path class="st2" d="M422.5,240.8c-1.2,0.7-1.2,2.2-0.2,3.1c1.5,1.4,3.9,0.1,4-1.9c0.1-2.8-3.3-6.7-11.1-3.5
						c-6,2.4-12.8,9-17.7,4.7c-3.6-3.2,0.3-8.9,3.5-7.2c3,1.5,0.3,4.9-1.6,3.4c-1-0.8-0.8-1.3-0.7-1.9c-0.4,0.2-0.6,1.4,0.5,2.2
						c0.4,0.3,0.9,0.6,1.7,0.5c3.2-0.5,2.9-5.1-1.3-5c-3.5,0.1-5.8,5.7-2.1,8.7c7.1,5.6,14.6-5.8,22.6-6.1c6-0.2,6.8,6.1,3.6,6.2
						c-0.5,0-0.9-0.2-1.2-0.4h0C421.1,242.2,422.3,241.1,422.5,240.8L422.5,240.8z"/>
				</g>
			</g>
		</g>
		<g>
			<g>
				<path class="st3" d="M480.1,207.6c0,1.1,34.3,2.9,34.3-0.1l8.9,1.9l9.6-3.1c4.8,2.3,16,6,16.4-2c0.2-5.4-7-6.4-8.9-3
					c-0.5,1-0.4,2,0.2,2.8c0.3-0.8,1.1-1.3,2-1.3c1.2,0,2.1,0.9,2.1,1.9c0,1.1-0.9,1.9-2.1,1.9c-1,0-1.8-0.6-2-1.4
					c-4.5-4.2,2.5-9.1,7.3-5.7c2.6,1.9,2.9,5.8,0.9,8.1c-0.8,0.9-1.8,1.5-3,1.8c1.2,0.3,2.2,0.9,3,1.8c2,2.3,1.8,6.2-0.9,8.1
					c-4.8,3.4-11.8-1.5-7.3-5.7c0.3-0.8,1.1-1.4,2-1.4c1.2,0,2.1,0.9,2.1,1.9c0,1.1-0.9,1.9-2.1,1.9c-0.9,0-1.7-0.5-2-1.3
					c-0.6,0.9-0.8,1.9-0.2,2.8c1.9,3.4,9.1,2.4,8.9-3c-0.4-8-11.6-4.3-16.4-2l-9.6-3.1l-8.9,1.9c0-3-34.3-1.2-34.3-0.1
					c-3-0.7-6.1-1.3-9.1-2C474.1,208.9,477.1,208.2,480.1,207.6L480.1,207.6z M333.2,207.5L333.2,207.5l-8.9,1.9l-9.6-3.1
					c-4.8,2.3-16,6-16.4-2c-0.2-5.4,7-6.4,8.9-3c0.5,1,0.4,2-0.3,2.8c-0.3-0.8-1.1-1.3-2-1.3c-1.2,0-2.1,0.9-2.1,1.9
					c0,1.1,0.9,1.9,2.1,1.9c1,0,1.8-0.6,2-1.4c4.5-4.2-2.5-9.1-7.3-5.7c-2.6,1.9-2.9,5.8-0.9,8.1c0.8,0.9,1.8,1.5,3,1.8
					c-1.2,0.3-2.2,0.9-3,1.8c-2,2.3-1.8,6.2,0.9,8.1c4.8,3.4,11.8-1.5,7.3-5.7c-0.3-0.8-1.1-1.4-2-1.4c-1.2,0-2.1,0.9-2.1,1.9
					c0,1.1,0.9,1.9,2.1,1.9c0.9,0,1.7-0.5,2-1.3c0.6,0.9,0.8,1.9,0.3,2.8c-1.9,3.4-9.1,2.4-8.9-3c0.4-8,11.6-4.3,16.4-2l9.6-3.1
					l8.9,1.9c0-3,34.9-1.2,34.9-0.1c3-0.7,6.1-1.3,9.1-2c-3-0.7-6.1-1.3-9.1-2C368.1,208.7,333.2,210.5,333.2,207.5L333.2,207.5z"/>
				<g>
					<path class="st3" d="M433,205.6L433,205.6c-2.4,0-4.3,1.8-4.3,3.9c0,2.2,1.9,3.9,4.3,3.9c2.4,0,4.3-1.8,4.3-3.9
						C437.3,207.4,435.4,205.6,433,205.6L433,205.6z"/>
					<path class="st3" d="M441.9,207.1L441.9,207.1c-1.5,0-2.7,1.1-2.7,2.5c0,1.4,1.2,2.5,2.7,2.5c1.5,0,2.7-1.1,2.7-2.5
						C444.6,208.2,443.4,207.1,441.9,207.1L441.9,207.1z"/>
					<path class="st3" d="M450.2,208L450.2,208c-0.9,0-1.7,0.7-1.7,1.6c0,0.9,0.8,1.6,1.7,1.6c0.9,0,1.7-0.7,1.7-1.6
						C451.9,208.7,451.2,208,450.2,208L450.2,208z"/>
					<path class="st3" d="M458,208.5L458,208.5c-0.7,0-1.2,0.5-1.2,1.1c0,0.6,0.5,1.1,1.2,1.1c0.7,0,1.2-0.5,1.2-1.1
						S458.7,208.5,458,208.5L458,208.5z"/>
					<path class="st3" d="M465.8,208.9L465.8,208.9c-0.4,0-0.8,0.3-0.8,0.7c0,0.4,0.3,0.7,0.8,0.7c0.4,0,0.8-0.3,0.8-0.7
						S466.2,208.9,465.8,208.9L465.8,208.9z"/>
				</g>
				<g>
					<path class="st3" d="M417.7,205.6c-2.4,0-4.3,1.8-4.2,4c0,2.2,2,3.9,4.4,3.9c2.4,0,4.3-1.8,4.2-4
						C422,207.3,420,205.6,417.7,205.6L417.7,205.6L417.7,205.6z"/>
					<path class="st3" d="M408.8,207.2c-1.5,0-2.7,1.1-2.7,2.5c0,1.4,1.2,2.5,2.7,2.4c1.5,0,2.7-1.1,2.7-2.5
						C411.5,208.3,410.3,207.2,408.8,207.2L408.8,207.2L408.8,207.2z"/>
					<path class="st3" d="M400.5,208.2c-0.9,0-1.7,0.7-1.7,1.6c0,0.9,0.8,1.6,1.7,1.5c0.9,0,1.7-0.7,1.7-1.6
						C402.2,208.9,401.5,208.2,400.5,208.2L400.5,208.2L400.5,208.2z"/>
					<path class="st3" d="M392.7,208.8c-0.7,0-1.2,0.5-1.2,1.1c0,0.6,0.6,1.1,1.2,1.1c0.7,0,1.2-0.5,1.2-1.1
						C393.9,209.3,393.4,208.8,392.7,208.8L392.7,208.8L392.7,208.8z"/>
					<path class="st3" d="M385,209.3c-0.4,0-0.8,0.3-0.7,0.7c0,0.4,0.3,0.7,0.8,0.7c0.4,0,0.8-0.3,0.7-0.7
						C385.8,209.6,385.4,209.3,385,209.3L385,209.3L385,209.3z"/>
				</g>
			</g>
			<g>
				<path class="st2" d="M425.4,196.4c-1.4-2.5-3-6.4-2.1-8.6c0.4-0.9,1-1.6,2.2-1.7c1.2,0,1.8,0.7,2.2,1.7c0.9,2.2-0.7,6.1-2.1,8.6
					H425.4L425.4,196.4L425.4,196.4z M425.5,187.1c-1.2,0-1.9,1-1.9,2.5c0,1.8,0.6,4.4,1.9,6.7l0,0l0,0c1.3-2.3,1.9-4.8,1.9-6.7
					C427.4,188.1,426.7,187.1,425.5,187.1L425.5,187.1z"/>
				<path class="st2" d="M425.5,193.9c0.9-0.7,2-1.7,2.7-2.6c1.8-2.5,0.5-6.5-2.7-6.5c-3.2,0-4.5,3.9-2.8,6.4
					C423.4,192.2,424.6,193.3,425.5,193.9L425.5,193.9z M425.5,194.4c-1.2,0.8-2.3,1.6-3,2l0,0h-0.8c-1.4-0.7-4-2-5.4-1.1
					c-0.4,0.2-0.6,0.7-0.6,1.1h-0.9c0-1.1,1.5-2.4,3.9-1.7c1.1,0.3,2.3,1,3.4,1.5c0.5-0.3,1.8-1.1,3.1-2.1c-1-0.7-2.5-1.9-3.2-3
					c-1.9-2.8-0.7-7.7,3.5-7.6c4.2,0,5.4,4.9,3.4,7.7c-0.7,1-2.2,2.2-3.1,2.9c1.3,0.9,2.6,1.8,3.1,2.1c1.1-0.5,2.3-1.2,3.4-1.5
					c2.4-0.7,3.9,0.6,3.9,1.7h-0.9c0-0.5-0.2-0.9-0.6-1.1c-1.4-0.8-4,0.5-5.4,1.1h-0.8l0,0C427.8,196,426.6,195.2,425.5,194.4
					L425.5,194.4z"/>
				<path class="st2" d="M421.3,193.8c-2.7-2.5-8-0.8-8,2.7c0,3.5,5.3,5.2,8,2.7c0.1-0.1,0.3-0.3,0.3-0.3c0.3-0.1,0.4,0,0.2,0.3
					c-1.4,1.3-2.4,3.1-2.3,5c-1.1-1.7,0.7-3.5,1-4c-3.1,1.7-8.2-0.3-8.2-3.6c0-3.3,5-5.3,8.2-3.6c-0.3-0.5-2.1-2.3-1-4
					c-0.1,1.9,1,3.7,2.3,5c0.1,0.3,0,0.4-0.2,0.3C421.5,194,421.3,193.8,421.3,193.8L421.3,193.8z"/>
				<path class="st2" d="M429.7,199.1c2.7,2.5,8,0.8,8-2.7c0-3.5-5.3-5.2-8-2.7c-0.1,0.1-0.3,0.3-0.3,0.3c-0.3,0.1-0.4,0-0.2-0.3
					c1.4-1.3,2.4-3.1,2.3-5c1.1,1.7-0.7,3.4-1,4c3.1-1.7,8.2,0.3,8.2,3.6c0,3.3-5,5.3-8.2,3.6c0.3,0.5,2.1,2.3,1,4
					c0.1-1.9-1-3.7-2.3-5c-0.1-0.3,0-0.4,0.2-0.3C429.4,198.8,429.6,199,429.7,199.1L429.7,199.1z"/>
				<path class="st2" d="M425.4,196.4c-1.4,2.5-3,6.4-2.1,8.6c0.4,0.9,1,1.6,2.2,1.7c1.2,0,1.8-0.7,2.2-1.7c0.9-2.2-0.7-6.1-2.1-8.6
					H425.4L425.4,196.4L425.4,196.4z M425.5,205.8c-1.2,0-1.9-1-1.9-2.5c0-1.8,0.6-4.4,1.9-6.6l0,0l0,0c1.3,2.3,1.9,4.8,1.9,6.6
					C427.4,204.8,426.7,205.8,425.5,205.8L425.5,205.8z"/>
				<path class="st2" d="M425.5,198.9c0.9,0.7,2,1.7,2.7,2.6c1.8,2.5,0.5,6.5-2.7,6.5c-3.2,0-4.5-3.9-2.8-6.4
					C423.4,200.6,424.6,199.6,425.5,198.9L425.5,198.9z M425.5,198.4c-1.2-0.8-2.3-1.6-3-2l0,0h-0.8c-1.4,0.7-4,2-5.4,1.1
					c-0.4-0.2-0.6-0.7-0.6-1.1h-0.9c0,1.1,1.5,2.4,3.9,1.7c1.1-0.3,2.3-1,3.4-1.5c0.5,0.3,1.8,1.1,3.1,2.1c-1,0.7-2.5,1.9-3.2,3
					c-1.9,2.8-0.7,7.7,3.5,7.6c4.2,0,5.4-4.9,3.4-7.7c-0.7-1-2.2-2.2-3.1-2.9c1.3-0.9,2.6-1.8,3.1-2.1c1.1,0.5,2.3,1.2,3.4,1.5
					c2.4,0.7,3.9-0.6,3.9-1.7h-0.9c0,0.5-0.2,0.9-0.6,1.1c-1.4,0.8-4-0.5-5.4-1.1h-0.8l0,0C427.8,196.8,426.6,197.6,425.5,198.4
					L425.5,198.4z"/>
			</g>
		</g>
		<g>
			<path class="st2" d="M397.3,333.8c-1.5,0.6-2.7,1.9-3,3.2c-2.8-4.1-6.5-2.3-8.6,0.6c-1.4,2-4.8,2.2-5.9,0.5
				c-1.2-1.8,0.2-3.6,2.3-3.7c-1.7-0.9-3.7,0.8-3.4,3c0.2,1.3,1.7,2.7,3.7,2.5c1.1-0.1,2.3-0.8,3.2-1.6c-0.1,2.4,2.8,3.1,3.5,1
				c0.4-1.2-1-2.3-2-1.4c-0.5,0.4-0.2,0.9,0.1,0.9c0.1-1.2,1.8-0.6,1.4,0.4c-0.2,0.5-0.9,0.8-1.5,0.6c-1-0.3-1.4-1.4-0.9-2.2
				c1.8-2.7,7.1-3.4,8.2,0.3c0.2,0.7,0.6,1.3,1.3,2c1.4,1.3,4.2,1.7,6.1-0.2c3,3.1,9.5,2.3,9.9-3.9c0.3-4.1-4.4-6.3-6.1-3
				c-0.8,1.4,0.1,2.9,1,2.9c-0.7-0.4-0.9-1-0.9-1.7c0.1-1.1,1-2.2,2.5-1.9c1.6,0.3,3.4,1.9,3.3,3.7c-0.4,5.3-6.8,5.7-9.4,3.6
				c0.9-1.3,0-3.6-1.1-2.8c-0.9,0.6-0.3,2.2,0.4,2.9c-0.8,0.8-2,1.1-3.2,1c-2-0.1-4.9-2.2-3-4.7C396,334.5,397.3,335.4,397.3,333.8
				L397.3,333.8z M401.7,339c-0.6-0.4-1.3-1.4-0.4-1.9C402.1,336.6,402.2,338.4,401.7,339L401.7,339z"/>
			<path class="st2" d="M424.7,338.3c-3.3,0.9-5.3-1.8-4.6-4.2c3.1,1.5,5.5,3.4,8.3,5c-1.9,3.6-8,3.7-10.4,0.8
				c0.5-0.6,1.4-2.3,0.3-2.9c-1.2-0.8-2.8,0.4-0.8,3c-2.4,2.3-8,0.7-8.3-3.4c-0.2-2.5,1.8-4,4.2-4.1c2.1-0.1,4.3,0.5,6.3,1.5
				C418.2,338.6,423.3,340.4,424.7,338.3L424.7,338.3z M420.2,333.7c0.7-1.5,2.5-2.6,4.4-2.4c3.5,0.4,5.3,4.2,4,7.4
				C425.7,337.2,423.3,335.2,420.2,333.7L420.2,333.7z M419.8,333.5c-2.3-1.1-4.8-2.3-6.9-2.1c-2.5,0.2-4.3,2-4,5.1
				c0.2,2.2,1.9,4.9,5.1,5.2c1.4,0.1,2.8-0.5,3.7-1.6c2.8,3.6,9.3,3.3,11.2-0.9c1.6,1,3.3,1.8,4.9,2c5.9,0.5,7.6-8.9,0.8-9.8
				c-3.6-0.5-4.7,1.9-4.2,3.5c0.2-1.8,2.1-2.8,4.2-2.5c6.6,0.9,4.7,8.5-0.5,8.1c-1.5-0.1-3.2-0.6-5-1.6c1.5-3.5-0.4-7.9-4.3-8.6
				C422.3,330,420.4,331.7,419.8,333.5L419.8,333.5z M417.8,339.6c-1-1.6-0.4-2.6,0.4-2C418.9,337.9,418.1,339.2,417.8,339.6
				L417.8,339.6z"/>
			<path class="st2" d="M450.3,333.8c1.5,0.6,2.7,1.9,3,3.2c2.8-4.1,6.5-2.3,8.6,0.6c1.4,2,4.8,2.2,5.9,0.5c1.2-1.8-0.2-3.6-2.3-3.7
				c1.7-0.9,3.7,0.8,3.4,3c-0.2,1.3-1.7,2.7-3.7,2.5c-1.1-0.1-2.3-0.8-3.2-1.6c0.1,2.4-2.8,3.1-3.5,1c-0.4-1.2,1-2.3,2-1.4
				c0.5,0.4,0.2,0.9-0.1,0.9c-0.1-1.2-1.8-0.6-1.4,0.4c0.2,0.5,0.9,0.8,1.5,0.6c1-0.3,1.4-1.4,0.9-2.2c-1.8-2.7-7.1-3.4-8.2,0.3
				c-0.2,0.7-0.6,1.3-1.3,2c-1.4,1.3-4.2,1.7-6.1-0.2c-3,3.1-9.5,2.3-9.9-3.9c-0.3-4.1,4.4-6.3,6.1-3c0.8,1.4-0.1,2.9-1,2.9
				c0.7-0.4,0.9-1,0.9-1.7c-0.1-1.1-1-2.2-2.5-1.9c-1.6,0.3-3.4,1.9-3.3,3.7c0.4,5.3,6.8,5.7,9.4,3.6c-0.9-1.3,0-3.6,1.1-2.8
				c0.9,0.6,0.3,2.2-0.4,2.9c0.8,0.8,2,1.1,3.2,1c2-0.1,4.9-2.2,3-4.7C451.6,334.5,450.3,335.4,450.3,333.8L450.3,333.8z M445.9,339
				c0.6-0.4,1.3-1.4,0.4-1.9C445.5,336.6,445.4,338.4,445.9,339L445.9,339z"/>
		</g>
		<g>
			<path class="st2" d="M394.4,141c0,0,0.2,0.2,0.5,0.6c0.3,0.4,0.8,0.9,1.3,1.6c0.3,0.3,0.7,0.6,1,1c0.4,0.3,0.8,0.7,1.3,1
				c1,0.7,2.2,1.2,3.6,1.5c0.2,0,0.4,0.1,0.5,0.1l0.2,0.1l0.3,0c0.4,0.1,0.8,0.1,1.2,0.2c0.8,0.1,1.6,0.2,2.5,0.2
				c0.9,0.1,1.7,0.1,2.7,0.1c0.9,0,1.8,0,2.8-0.1c1.9-0.2,3.8-0.6,5.7-1.5c1.9-0.8,3.7-1.8,5.5-2.8c1.8-1,3.6-2.1,5.4-3
				c0.9-0.5,1.8-0.9,2.8-1.3c0.9-0.4,1.9-0.8,2.8-1.1c1.9-0.7,3.8-1,5.7-1.1c1.8-0.1,3.6,0,5.2,0.2c1.6,0.2,3,0.6,4.3,1.1
				c1.2,0.5,2.2,1.1,2.9,1.7c0.7,0.6,1.2,1.2,1.5,1.6c0.3,0.4,0.4,0.7,0.4,0.7l-0.2,0.1c0,0-0.2-0.2-0.5-0.5
				c-0.3-0.3-0.9-0.8-1.6-1.2c-0.8-0.4-1.7-0.8-2.9-1.1c-1.2-0.3-2.5-0.5-4-0.6c-1.5-0.1-3.1-0.1-4.8,0.1c-0.8,0.1-1.7,0.3-2.6,0.4
				l-0.7,0.1l-0.7,0.2c-0.4,0.1-0.9,0.2-1.3,0.3c-0.9,0.2-1.8,0.6-2.7,0.9c-0.9,0.3-1.8,0.7-2.8,1.1c-1.9,0.8-3.8,1.6-5.7,2.4
				c-0.9,0.4-1.9,0.8-2.9,1.2c-1,0.4-1.9,0.8-2.8,1.2c-1.8,0.8-3.8,1.5-5.7,2c-1.9,0.5-3.9,0.7-5.7,0.7c-0.9,0-1.8-0.1-2.7-0.2
				c-0.4-0.1-0.8-0.2-1.2-0.2l-0.3-0.1c-0.2,0-0.2-0.1-0.3-0.1c-0.2-0.1-0.4-0.1-0.6-0.2c-1.6-0.5-2.9-1.2-4-2.1
				c-1.1-0.8-1.7-1.8-2.3-2.6c-0.5-0.8-0.8-1.4-1-1.9c-0.2-0.4-0.3-0.7-0.3-0.7L394.4,141z"/>
			<path class="st2" d="M394.8,140.8c0,0,0.1,0,0.2,0c0.1,0,0.3,0,0.6,0.1c0.5,0.1,1.2,0.5,2,0.9c0.4,0.2,0.8,0.5,1.3,0.6l0.2,0.1
				c0,0,0.1,0,0.2,0c0.1,0,0.3,0.1,0.4,0.1c0.3,0.1,0.6,0.2,0.9,0.2c1.1,0.1,2.5,0.1,4-0.1c1.6-0.1,3.1-0.4,4.8-0.8
				c1.7-0.4,3.4-0.9,5.2-1.5c1.8-0.6,3.6-1.5,5.4-2.4c1.8-1,3.5-2.1,5.3-3.1c1.8-1.1,3.6-2.1,5.6-2.8c2-0.7,4-1.1,6.1-1.2
				c2-0.1,4,0.2,5.8,0.8c0.5,0.2,0.8,0.3,1.3,0.5c0.4,0.2,0.8,0.3,1.2,0.5c0.8,0.4,1.5,0.8,2.2,1.2c0.7,0.5,1.3,0.9,1.9,1.4
				c0.3,0.2,0.5,0.5,0.8,0.7c0.2,0.2,0.5,0.5,0.7,0.7c0.2,0.2,0.4,0.5,0.7,0.7c0.2,0.2,0.4,0.5,0.6,0.7c0.4,0.4,0.7,0.8,0.9,1.2
				c0.2,0.4,0.5,0.7,0.7,1c0.2,0.3,0.3,0.6,0.4,0.8c0.2,0.4,0.3,0.7,0.3,0.7l-0.2,0.1c0,0-0.2-0.2-0.5-0.6c-0.1-0.2-0.3-0.4-0.5-0.7
				c-0.2-0.3-0.5-0.5-0.8-0.9c-0.3-0.3-0.7-0.7-1-1c-0.2-0.2-0.4-0.4-0.6-0.6c-0.2-0.2-0.5-0.4-0.7-0.5c-0.2-0.2-0.5-0.4-0.7-0.6
				c-0.3-0.2-0.5-0.4-0.8-0.5c-0.5-0.4-1.2-0.7-1.8-1.1c-0.3-0.2-0.7-0.3-1-0.5c-0.3-0.2-0.7-0.3-1.1-0.5c-0.4-0.1-0.8-0.3-1.2-0.5
				c-0.3-0.1-0.8-0.2-1.2-0.3c-0.4-0.1-0.8-0.2-1.2-0.3c-0.4-0.1-0.8-0.2-1.3-0.2c-0.4,0-0.9-0.1-1.3-0.1c-0.4,0-0.9,0-1.3,0
				c-1.8,0-3.7,0.3-5.6,0.9c-1.9,0.6-3.8,1.3-5.7,2.1c-1.9,0.8-3.7,1.7-5.5,2.7c-1.8,1-3.5,1.9-5.3,2.9c-1.7,0.9-3.5,1.7-5.2,2.2
				c-1.7,0.5-3.6,0.7-5.1,0.8c-1.6,0-3.1,0-4.5-0.3c-0.3-0.1-0.6-0.2-0.9-0.3c-0.1-0.1-0.3-0.1-0.4-0.2l-0.2-0.1l-0.2-0.1
				c-0.5-0.3-0.9-0.6-1.3-0.9c-0.7-0.6-1.2-1-1.6-1.2c-0.2-0.1-0.4-0.2-0.5-0.2c-0.1,0-0.2-0.1-0.2-0.1L394.8,140.8z"/>
		</g>
		<g>
			<g>
				<path class="st2" d="M413.4,57.7c0,0,0.1-0.1,0.3-0.2c0.2-0.1,0.4-0.4,0.3-0.8c-0.2-0.4-0.6-0.7-1.2-1c-0.6-0.2-1.4-0.4-2,0
					c-0.7,0.4-1.1,1.2-1.2,2.2c-0.1,0.9,0.1,2.1,0.9,2.8c0.2,0.2,0.4,0.4,0.6,0.6l0.3,0.2l0.4,0.2c0.5,0.2,1.1,0.3,1.7,0.2
					c0.6-0.1,1.2-0.3,1.7-0.7c0.5-0.4,1-0.8,1.4-1.4c0.4-0.5,0.8-1.2,1-1.8c0.1-0.3,0.2-0.7,0.2-1c0.1-0.4,0.1-0.8,0.1-1.1
					c0-1.5-0.3-3-1.1-4.4c-1.5-2.8-4.6-5-8.1-5.4c-1.7-0.2-3.6,0-5.2,1c-0.8,0.5-1.5,1-2.1,1.7c-0.6,0.7-1.1,1.5-1.6,2.3
					c-0.9,1.6-1.2,3.6-1.1,5.5c0.2,1.9,0.9,3.7,1.8,5.4c1.9,3.3,4.6,6.1,7.6,8.4c3,2.2,6.3,4.2,8.8,7c1.2,1.4,2.3,3,2.5,5
					c0.2,1.9-0.7,3.8-1.8,5.1l-0.2,0.3l-0.3,0.2l-0.4,0.4c-0.3,0.3-0.7,0.5-1.1,0.8c-0.8,0.4-1.7,0.6-2.5,0.6
					c-1.7,0-3.3-0.8-4.4-1.8c-1.2-1-1.9-2.4-2.2-3.7c-0.2-0.7-0.2-1.4-0.2-2c0.1-0.7,0.3-1.3,0.6-1.9c0.3-0.6,0.7-1,1.3-1.3
					c0.5-0.3,1.2-0.4,1.7-0.3c0.6,0.1,1,0.4,1.4,0.7c0.4,0.3,0.6,0.8,0.8,1.2c0.3,0.8,0.5,1.6,0.4,2.3c0,0.7-0.3,1.3-0.8,1.5
					c-0.2,0-0.5,0-0.6,0c-0.2,0-0.3-0.1-0.4-0.2c-0.2-0.1-0.3-0.2-0.3-0.2l0.1-0.1c0,0,0.1,0,0.3,0.1c0.1,0.1,0.2,0.1,0.4,0.1
					c0.2,0.1,0.4,0,0.5,0c0.4-0.1,0.6-0.7,0.6-1.3c0-0.6-0.1-1.4-0.5-2.1c-0.2-0.4-0.4-0.7-0.7-1c-0.3-0.3-0.8-0.5-1.2-0.5
					c-0.9-0.2-1.9,0.4-2.3,1.4c-0.2,0.5-0.4,1-0.4,1.6c0,0.6,0.1,1.2,0.2,1.8c0.3,1.2,1,2.4,2.1,3.3c1,0.9,2.4,1.5,3.8,1.5
					c0.7,0,1.4-0.2,2.1-0.5c0.3-0.2,0.6-0.4,0.9-0.6l0.4-0.4l0.2-0.2l0.2-0.2c1-1.2,1.7-2.7,1.5-4.3c-0.2-1.6-1.1-3.1-2.3-4.4
					c-2.3-2.6-5.5-4.6-8.6-6.9c-3-2.4-5.7-5.3-7.5-8.8c-0.9-1.7-1.5-3.6-1.7-5.6c-0.2-1.9,0.2-3.9,1.2-5.6c0.5-0.8,1-1.6,1.6-2.4
					c0.6-0.7,1.4-1.3,2.2-1.8c1.6-1,3.6-1.3,5.4-1.2c3.7,0.3,7.1,2.5,8.8,5.5c1.7,3,1.7,6.9-0.3,9.3c-0.5,0.6-1,1.1-1.6,1.5
					c-0.6,0.4-1.3,0.7-2,0.8c-1.5,0.3-2.9-0.6-3.6-1.5c-0.9-1-1.1-2.3-1-3.3c0.1-1.1,0.7-2.1,1.5-2.5c0.9-0.4,1.7-0.1,2.3,0.1
					c0.6,0.3,1.1,0.7,1.3,1.2c0.1,0.2,0.1,0.5-0.1,0.6c-0.1,0.2-0.2,0.2-0.3,0.3C413.6,57.7,413.5,57.8,413.4,57.7L413.4,57.7z"/>
				<path class="st2" d="M357.4,47.1c0,0,0.2-0.1,0.4-0.2c0.3-0.1,0.7-0.3,1.2-0.5c0.3-0.1,0.6-0.2,0.9-0.3c0.3-0.1,0.7-0.2,1.1-0.2
					c0.8-0.1,1.7-0.3,2.7-0.3c1,0,2.1,0,3.2,0.1c1.1,0.1,2.3,0.3,3.5,0.6c2.4,0.5,4.9,1.5,7.3,2.6c1.2,0.6,2.3,1.3,3.4,2
					c1.1,0.7,2.2,1.5,3.1,2.2c1,0.7,1.9,1.6,2.7,2.3c0.8,0.8,1.6,1.5,2.2,2.3c0.7,0.7,1.3,1.4,1.8,2c0.5,0.6,0.9,1.2,1.3,1.6
					c0.7,0.9,1,1.5,1,1.5s-0.4-0.5-1.2-1.4c-0.4-0.4-0.8-0.9-1.4-1.5c-0.5-0.6-1.2-1.2-1.9-1.9c-0.7-0.7-1.5-1.4-2.3-2.1
					c-0.9-0.7-1.8-1.5-2.8-2.2c-1-0.7-2-1.4-3.1-2.1c-1.1-0.7-2.2-1.3-3.4-1.9c-1.2-0.6-2.3-1.1-3.5-1.5c-1.2-0.4-2.4-0.8-3.6-1.1
					c-1.2-0.3-2.3-0.5-3.4-0.7c-1.1-0.2-2.2-0.3-3.1-0.3c-1,0-1.9,0-2.7,0.1c-0.4,0.1-0.8,0.1-1.1,0.1c-0.3,0.1-0.6,0.1-0.9,0.2
					c-0.6,0.1-1,0.3-1.3,0.4C357.6,47.1,357.4,47.1,357.4,47.1z"/>
				<path class="st2" d="M388.7,62c0,0,0.2,0.3,0.5,0.9c0.1,0.3,0.4,0.6,0.7,0.9c0.3,0.4,0.6,0.7,0.9,1.1c0.3,0.4,0.8,0.8,1.2,1.2
					c0.5,0.4,1,0.8,1.5,1.2c0.6,0.4,1.1,0.8,1.7,1.1c0.6,0.4,1.3,0.7,1.9,1c0.7,0.3,1.3,0.6,2,0.8c0.7,0.3,1.3,0.5,2,0.7
					c0.7,0.2,1.3,0.4,1.9,0.5c0.6,0.1,1.2,0.3,1.7,0.3c0.5,0.1,1,0.2,1.5,0.2c0.4,0,0.8,0.1,1.1,0.1c0.6,0,1,0,1,0s-0.4,0.1-1,0.2
					c-0.3,0.1-0.7,0.1-1.2,0.1c-0.5,0-1,0-1.5,0c-0.6,0-1.2-0.1-1.8-0.2c-0.6-0.1-1.3-0.2-2-0.4c-0.7-0.2-1.4-0.3-2.1-0.6
					c-0.7-0.2-1.4-0.5-2.1-0.8c-0.7-0.4-1.3-0.7-2-1.1c-0.6-0.4-1.2-0.8-1.8-1.3c-0.5-0.4-1-0.9-1.5-1.4c-0.4-0.5-0.9-0.9-1.2-1.4
					c-0.2-0.2-0.3-0.4-0.5-0.7c-0.1-0.2-0.2-0.4-0.4-0.6c-0.2-0.4-0.4-0.7-0.5-1.1C388.8,62.4,388.7,62,388.7,62z"/>
				<path class="st2" d="M406.8,82.2c0,0,0-0.1,0-0.3c0-0.2-0.1-0.5-0.2-0.9c-0.2-0.7-1-1.6-2.1-2.2c-0.6-0.3-1.2-0.6-1.9-0.7
					c-0.7-0.2-1.5-0.2-2.2-0.1c-0.7,0.2-1.4,0.6-2,1.2c-0.6,0.6-0.9,1.3-1,2.1c-0.1,0.8,0.1,1.5,0.6,2.2c0.5,0.7,1.1,1.2,1.8,1.5
					c0.7,0.3,1.4,0.3,2,0.1c0.3-0.1,0.6-0.3,0.8-0.5l0.1-0.1c0,0,0.1,0,0,0l0-0.1l0.2-0.2c0.1-0.1,0.1-0.2,0.2-0.4
					c0.4-1.1-0.2-2.4-0.9-2.5c-0.4-0.1-0.6,0.1-0.8,0.2c-0.2,0.1-0.3,0.2-0.3,0.2s0.1-0.1,0.2-0.2c0.2-0.1,0.4-0.4,0.9-0.3
					c0.4,0,0.9,0.4,1.2,0.9c0.3,0.5,0.5,1.2,0.3,1.9c0,0.2-0.1,0.4-0.2,0.6l-0.1,0.2l0,0.1c-0.1,0.1,0,0-0.1,0.1l-0.1,0.1
					c-0.3,0.3-0.6,0.5-1,0.7c-0.8,0.4-1.8,0.4-2.7,0.1c-0.9-0.3-1.6-1-2.2-1.7c-0.6-0.8-0.9-1.8-0.8-2.9c0.1-1,0.6-1.9,1.3-2.6
					c0.7-0.7,1.6-1.2,2.5-1.3c1-0.2,1.8,0,2.6,0.2c0.8,0.2,1.5,0.6,2,0.9c1.2,0.8,1.8,1.8,2,2.6c0.1,0.4,0.1,0.7,0.1,0.9
					C406.8,82.1,406.8,82.2,406.8,82.2z"/>
				<path class="st2" d="M397.1,54.5c0,1.4-1.1,2.5-2.5,2.5c-1.4,0-2.5-1.1-2.5-2.5c0-1.4,1.1-2.5,2.5-2.5
					C396,52,397.1,53.1,397.1,54.5z"/>
				<path class="st2" d="M398.2,49.1c0,1-0.8,1.8-1.8,1.8c-1,0-1.8-0.8-1.8-1.8c0-1,0.8-1.8,1.8-1.8
					C397.4,47.3,398.2,48.1,398.2,49.1z"/>
				<path class="st2" d="M401.5,45.6c0,0.8-0.7,1.5-1.5,1.5c-0.8,0-1.5-0.7-1.5-1.5c0-0.8,0.7-1.5,1.5-1.5
					C400.9,44.1,401.5,44.8,401.5,45.6z"/>
			</g>
			<path class="st2" d="M261.5,54.1c0,0,0.1,0,0.3-0.1c0.1-0.1,0.4-0.2,0.4-0.5c0-0.3-0.2-0.7-0.6-0.9c-0.4-0.3-0.9-0.1-1.2,0.4
				c-0.5,1-0.6,2.9,0.9,3.6c0.7,0.4,1.6,0.4,2.4,0.2c0.5-0.1,0.9-0.3,1.2-0.6c0.2-0.2,0.4-0.3,0.5-0.5c0.1-0.2,0.3-0.4,0.4-0.6
				c0.4-0.9,0.4-2,0.2-3c-0.3-1-0.8-2.1-1.6-2.9c-0.4-0.4-0.9-0.8-1.4-1c-0.6-0.3-1.1-0.6-1.7-0.8l-0.9-0.3l-0.9-0.1l-0.5-0.1
				c-0.2,0-0.3,0-0.5,0l-1,0c-2.6,0.3-5.1,1.9-6.7,4.3c-0.8,1.1-1.3,2.5-1.5,3.9c0,0.7,0,1.4,0.2,2.1c0.2,0.7,0.5,1.3,0.9,1.9
				c0.4,0.6,0.8,1.1,1.3,1.6c0.5,0.5,1.1,1,1.7,1.3c1.1,0.8,2.5,1.2,3.8,1.5c1.3,0.3,2.7,0.3,4,0.2l1-0.1c0.2,0,0.4,0,0.5-0.1
				l0.5-0.1l1-0.3l0.9-0.4c2.4-1,4.5-2.6,6.5-4c2.1-1.4,4.1-2.5,6-3.6c1.9-1.1,3.8-1.9,5.5-2.3c0.4-0.1,0.9-0.2,1.3-0.3
				c0.4-0.1,0.8-0.2,1.2-0.2c0.8,0,1.5-0.1,2.1,0c0.3,0,0.6,0,0.9,0.1c0.3,0.1,0.5,0.1,0.8,0.2c0.2,0,0.5,0.1,0.7,0.1
				c0.2,0.1,0.4,0.1,0.5,0.2c0.6,0.2,1,0.4,1,0.4l0,0.1c0,0-0.3-0.1-1-0.3c-0.2,0-0.3-0.1-0.5-0.1c-0.2,0-0.4-0.1-0.7-0.1
				c-0.2,0-0.5-0.1-0.8-0.1c-0.3,0-0.6,0-0.9,0c-0.6,0-1.3,0-2.1,0.1c-0.4,0-0.7,0.1-1.1,0.2c-0.4,0.1-0.8,0.2-1.2,0.3
				c-1.6,0.5-3.4,1.3-5.2,2.4c-0.9,0.6-1.9,1.1-2.9,1.8c-1,0.6-2,1.2-3,1.9c-2,1.3-4.1,3.1-6.7,4.1l-1,0.4l-1,0.2l-0.5,0.1
				c-0.2,0.1-0.4,0.1-0.6,0.1l-1.1,0.1c-1.4,0.1-2.9,0.1-4.3-0.3c-1.4-0.3-2.8-0.9-4-1.8c-0.7-0.4-1.1-0.9-1.7-1.4
				c-0.5-0.6-1-1.1-1.4-1.8c-0.4-0.6-0.7-1.3-0.8-2.1c-0.2-0.7-0.2-1.5-0.1-2.2c0.1-1.5,0.7-2.9,1.6-4c1.6-2.4,4.1-4.1,6.8-4.6
				l1-0.1c0.2,0,0.3,0,0.5,0l0.5,0c0.3,0,0.7,0.1,1,0.1c0.3,0.1,0.7,0.2,1,0.3c0.7,0.1,1.2,0.5,1.8,0.7c0.6,0.3,1.2,0.7,1.6,1.2
				c0.9,1,1.5,2.1,1.8,3.3c0.3,1.2,0.3,2.5-0.3,3.6c-0.1,0.3-0.3,0.5-0.5,0.7c-0.2,0.2-0.4,0.4-0.6,0.6c-0.5,0.3-1,0.6-1.5,0.7
				c-1,0.3-2.1,0.2-3-0.3c-0.8-0.5-1.3-1.4-1.4-2.3c0-0.8,0.1-1.5,0.5-2.1c0.2-0.3,0.4-0.6,0.8-0.6c0.3-0.1,0.7,0,0.9,0.2
				c0.4,0.3,0.7,0.7,0.7,1.1c0,0.4-0.4,0.6-0.5,0.6C261.6,54.2,261.5,54.2,261.5,54.1L261.5,54.1z"/>
			<path class="st2" d="M247.9,67.9c0,0,0,0.1,0,0.3c0,0.2-0.2,0.5-0.6,0.6c-0.4,0-0.8-0.2-1.2-0.6c-0.2-0.2-0.3-0.5-0.2-0.9
				c0-0.4,0.3-0.6,0.6-0.8c0.6-0.4,1.3-0.6,2.1-0.6c0.9,0,1.8,0.4,2.3,1.2c0.6,0.8,0.7,1.9,0.5,3c-0.1,0.5-0.3,1-0.6,1.5
				c-0.2,0.2-0.3,0.5-0.6,0.7c-0.2,0.2-0.4,0.4-0.7,0.5c-1.1,0.6-2.3,0.7-3.5,0.5c-1.2-0.2-2.4-0.8-3.4-1.6
				c-0.5-0.4-0.9-0.9-1.3-1.6c-0.3-0.6-0.6-1.1-0.8-1.8c-0.1-0.3-0.2-0.7-0.3-1c-0.1-0.3-0.1-0.7-0.2-1l-0.1-0.5c0-0.2,0-0.3,0-0.5
				l0-1c0.4-2.8,1.9-5.4,4.2-7.1c1.1-0.9,2.5-1.6,3.9-1.8c0.7-0.1,1.5-0.1,2.2,0c0.7,0.2,1.4,0.4,2.1,0.7c0.7,0.3,1.3,0.7,1.9,1.3
				c0.5,0.5,1.1,0.9,1.5,1.6c1,1.2,1.6,2.5,2,3.9c0.5,1.4,0.5,2.9,0.5,4.3l-0.1,1.1c0,0.2,0,0.3-0.1,0.6l-0.1,0.5l-0.2,1l-0.3,1
				c-0.9,2.7-2.5,4.8-3.7,6.9c-0.6,1-1.2,2.1-1.7,3.1c-0.6,1-1.1,2-1.6,3c-1,1.9-1.7,3.7-2.1,5.4c-0.1,0.4-0.2,0.8-0.2,1.2
				c0,0.4-0.1,0.8-0.1,1.1c0,0.8-0.1,1.5,0,2.1c0,0.3,0,0.6,0.1,0.9c0,0.3,0.1,0.5,0.1,0.8c0,0.2,0.1,0.5,0.1,0.7
				c0.1,0.2,0.1,0.4,0.2,0.5c0.2,0.6,0.3,1,0.3,1l-0.1,0c0,0-0.1-0.3-0.4-1c-0.1-0.2-0.2-0.3-0.2-0.5c-0.1-0.2-0.1-0.4-0.2-0.7
				c-0.1-0.2-0.1-0.5-0.2-0.8c-0.1-0.3-0.1-0.6-0.1-0.9c-0.1-0.6-0.1-1.3-0.1-2.1c0-0.4,0.1-0.8,0.1-1.2c0-0.4,0.1-0.8,0.2-1.3
				c0.3-1.8,1-3.7,2-5.6c1-2,2-4,3.2-6.2c1.3-2.1,2.8-4.3,3.6-6.7l0.3-0.9l0.2-1l0.1-0.5c0-0.1,0-0.3,0.1-0.5l0.1-1
				c0-1.3,0-2.7-0.4-4c-0.3-1.3-0.9-2.6-1.7-3.7c-0.3-0.6-0.9-1.1-1.4-1.6c-0.5-0.4-1.1-0.9-1.7-1.2c-0.6-0.4-1.3-0.6-1.9-0.8
				c-0.7-0.1-1.4-0.2-2.1-0.1c-1.4,0.2-2.7,0.8-3.8,1.7c-2.2,1.7-3.7,4.3-3.9,6.9l0,1c0,0.2,0,0.3,0,0.5l0.1,0.5l0.2,0.9l0.3,0.9
				c0.2,0.6,0.6,1.1,0.8,1.7c0.3,0.5,0.7,0.9,1.1,1.3c0.9,0.7,2,1.2,3,1.4c1.1,0.2,2.2,0.1,3-0.3c0.2-0.1,0.4-0.2,0.6-0.4
				c0.2-0.1,0.3-0.3,0.4-0.5c0.2-0.4,0.4-0.7,0.5-1.3c0.2-0.9,0.1-1.8-0.3-2.4c-0.8-1.4-2.7-1.2-3.7-0.7c-0.5,0.3-0.6,0.8-0.3,1.2
				c0.2,0.4,0.6,0.6,0.9,0.6c0.3,0,0.4-0.2,0.5-0.4C247.8,67.9,247.8,67.9,247.9,67.9L247.9,67.9z"/>
			<g>
				<path class="st2" d="M275.7,54.8c-0.6,0.8-1.7,1-2.5,0.4c-0.8-0.6-1-1.7-0.4-2.5c0.6-0.8,1.7-1,2.5-0.4
					C276.1,52.8,276.2,54,275.7,54.8z"/>
				<path class="st2" d="M279,52.8c-0.4,0.6-1.2,0.7-1.8,0.3c-0.6-0.4-0.7-1.2-0.3-1.8c0.4-0.6,1.2-0.7,1.8-0.3
					C279.2,51.4,279.4,52.2,279,52.8z"/>
				<path class="st2" d="M282.1,51.8c-0.3,0.5-1,0.6-1.5,0.3c-0.5-0.3-0.6-1-0.3-1.5c0.3-0.5,1-0.6,1.5-0.3
					C282.4,50.7,282.5,51.4,282.1,51.8z"/>
				<path class="st2" d="M285,51.3c-0.3,0.4-0.8,0.5-1.2,0.2c-0.4-0.3-0.5-0.8-0.2-1.2c0.3-0.4,0.8-0.5,1.2-0.2
					C285.2,50.4,285.3,50.9,285,51.3z"/>
				<path class="st2" d="M287.2,51.1c-0.2,0.3-0.6,0.3-0.9,0.2c-0.3-0.2-0.4-0.6-0.2-0.8c0.2-0.3,0.6-0.3,0.9-0.2
					C287.3,50.5,287.4,50.9,287.2,51.1z"/>
				<path class="st2" d="M289.2,51.3c-0.1,0.2-0.4,0.2-0.6,0.1c-0.2-0.1-0.2-0.4-0.1-0.6c0.1-0.2,0.4-0.2,0.6-0.1
					C289.2,50.9,289.3,51.2,289.2,51.3z"/>
				<path class="st2" d="M290.6,51.9c-0.1,0.2-0.3,0.2-0.4,0.1c-0.1-0.1-0.2-0.3-0.1-0.5c0.1-0.2,0.3-0.2,0.4-0.1
					C290.7,51.5,290.7,51.8,290.6,51.9z"/>
			</g>
			<g>
				<path class="st2" d="M249.2,82.8c0.8-0.6,0.9-1.8,0.3-2.5c-0.6-0.8-1.8-0.9-2.5-0.3c-0.8,0.6-0.9,1.8-0.3,2.5
					C247.3,83.3,248.4,83.4,249.2,82.8z"/>
				<path class="st2" d="M247.5,86.2c0.6-0.5,0.6-1.3,0.2-1.8c-0.5-0.6-1.3-0.6-1.8-0.2c-0.6,0.5-0.6,1.3-0.2,1.8
					C246.1,86.6,246.9,86.7,247.5,86.2z"/>
				<path class="st2" d="M246.7,89.5c0.5-0.4,0.5-1.1,0.2-1.5c-0.4-0.5-1.1-0.5-1.5-0.2c-0.5,0.4-0.5,1.1-0.2,1.5
					C245.5,89.8,246.2,89.8,246.7,89.5z"/>
				<path class="st2" d="M246.3,92.4c0.4-0.3,0.4-0.8,0.1-1.2c-0.3-0.4-0.8-0.4-1.2-0.1c-0.4,0.3-0.4,0.8-0.1,1.2
					C245.4,92.6,246,92.7,246.3,92.4z"/>
				<path class="st2" d="M246.3,94.5c0.3-0.2,0.3-0.6,0.1-0.9c-0.2-0.3-0.6-0.3-0.8-0.1c-0.3,0.2-0.3,0.6-0.1,0.9
					C245.7,94.7,246,94.8,246.3,94.5z"/>
				<path class="st2" d="M246.7,96.5c0.2-0.1,0.2-0.4,0.1-0.6c-0.1-0.2-0.4-0.2-0.6-0.1c-0.2,0.1-0.2,0.4-0.1,0.6
					C246.2,96.6,246.5,96.7,246.7,96.5z"/>
				<path class="st2" d="M247.3,97.9c0.1-0.1,0.2-0.3,0-0.4c-0.1-0.1-0.3-0.1-0.5,0c-0.1,0.1-0.2,0.3,0,0.4
					C246.9,98,247.2,98,247.3,97.9z"/>
			</g>
		</g>
		<g>
			<g>
				<path class="st2" d="M426.2,57.7c0,0-0.1-0.1-0.3-0.2c-0.2-0.1-0.4-0.4-0.3-0.8c0.2-0.4,0.6-0.7,1.2-1c0.6-0.2,1.3-0.4,2,0
					c0.7,0.4,1.1,1.2,1.2,2.2c0.1,0.9-0.1,2.1-0.9,2.8c-0.2,0.2-0.4,0.4-0.6,0.6l-0.3,0.2l-0.4,0.2c-0.5,0.2-1.1,0.3-1.6,0.2
					c-0.6-0.1-1.1-0.3-1.6-0.7c-0.5-0.4-1-0.8-1.4-1.4c-0.4-0.5-0.8-1.2-1-1.8c-0.1-0.3-0.2-0.7-0.2-1c-0.1-0.4-0.1-0.8-0.1-1.1
					c0-1.5,0.3-3,1.1-4.4c1.5-2.8,4.4-5,7.9-5.4c1.7-0.2,3.5,0,5.1,1c0.8,0.5,1.5,1,2.1,1.7c0.6,0.7,1.1,1.5,1.5,2.3
					c0.9,1.6,1.2,3.6,1,5.5c-0.2,1.9-0.8,3.7-1.7,5.4c-1.8,3.3-4.5,6.1-7.4,8.4c-2.9,2.2-6.1,4.2-8.6,7c-1.2,1.4-2.3,3-2.5,5
					c-0.2,1.9,0.6,3.8,1.7,5.1l0.2,0.3l0.2,0.2l0.4,0.4c0.3,0.3,0.7,0.5,1.1,0.8c0.8,0.4,1.6,0.6,2.5,0.6c1.7,0,3.2-0.8,4.3-1.8
					c1.1-1,1.8-2.4,2.2-3.7c0.2-0.7,0.2-1.4,0.2-2c-0.1-0.7-0.2-1.3-0.5-1.9c-0.3-0.6-0.7-1-1.2-1.3c-0.5-0.3-1.1-0.4-1.7-0.3
					c-0.5,0.1-1,0.4-1.4,0.7c-0.4,0.3-0.6,0.8-0.8,1.2c-0.3,0.8-0.4,1.6-0.4,2.3c0,0.7,0.3,1.3,0.8,1.5c0.2,0,0.5,0,0.6,0
					c0.2,0,0.3-0.1,0.4-0.2c0.2-0.1,0.3-0.2,0.3-0.2l0-0.1c0,0-0.1,0-0.3,0.1c-0.1,0.1-0.2,0.1-0.4,0.1c-0.2,0.1-0.3,0-0.5,0
					c-0.4-0.1-0.6-0.7-0.6-1.3c0-0.6,0.1-1.4,0.5-2.1c0.2-0.4,0.4-0.7,0.7-1c0.3-0.3,0.7-0.5,1.2-0.5c0.9-0.2,1.8,0.4,2.3,1.4
					c0.2,0.5,0.4,1,0.4,1.6c0,0.6-0.1,1.2-0.2,1.8c-0.3,1.2-1,2.4-2,3.3c-1,0.9-2.3,1.5-3.7,1.5c-0.7,0-1.4-0.2-2-0.5
					c-0.3-0.2-0.6-0.4-0.9-0.6l-0.4-0.4l-0.2-0.2l-0.2-0.2c-1-1.2-1.7-2.7-1.5-4.3c0.2-1.6,1.1-3.1,2.2-4.4c2.3-2.6,5.4-4.6,8.4-6.9
					c2.9-2.4,5.6-5.3,7.3-8.8c0.9-1.7,1.5-3.6,1.6-5.6c0.1-2-0.2-3.9-1.1-5.6c-0.5-0.8-0.9-1.6-1.6-2.4c-0.6-0.7-1.4-1.3-2.2-1.8
					c-1.6-1-3.5-1.3-5.3-1.2c-3.6,0.3-6.9,2.5-8.6,5.5c-1.7,3-1.6,6.9,0.3,9.3c0.4,0.6,1,1.1,1.6,1.5c0.6,0.4,1.3,0.7,2,0.8
					c1.4,0.3,2.8-0.6,3.5-1.5c0.9-1,1-2.3,0.9-3.3c-0.1-1.1-0.6-2.1-1.5-2.5c-0.9-0.4-1.7-0.1-2.3,0.1c-0.6,0.3-1.1,0.7-1.2,1.2
					c-0.1,0.2-0.1,0.5,0.1,0.6c0.1,0.2,0.2,0.2,0.3,0.3C426,57.7,426.1,57.8,426.2,57.7L426.2,57.7z"/>
				<path class="st2" d="M480.8,47.1c0,0-0.1-0.1-0.4-0.2c-0.3-0.1-0.7-0.3-1.2-0.5c-0.3-0.1-0.6-0.2-0.9-0.3
					c-0.3-0.1-0.7-0.2-1.1-0.2c-0.8-0.1-1.7-0.3-2.6-0.3c-1,0-2,0-3.1,0.1c-1.1,0.1-2.3,0.3-3.5,0.6c-2.4,0.6-4.8,1.5-7.2,2.6
					c-1.2,0.6-2.3,1.3-3.3,2c-1.1,0.7-2.1,1.5-3.1,2.2c-1,0.7-1.8,1.6-2.7,2.3c-0.8,0.8-1.6,1.5-2.2,2.3c-0.7,0.7-1.2,1.4-1.7,2
					c-0.5,0.6-0.9,1.2-1.2,1.6c-0.6,0.9-1,1.5-1,1.5s0.4-0.5,1.2-1.4c0.3-0.4,0.8-0.9,1.4-1.5c0.5-0.6,1.2-1.2,1.8-1.9
					c0.7-0.7,1.5-1.4,2.3-2.1c0.9-0.7,1.7-1.5,2.7-2.2c0.9-0.7,2-1.4,3-2.1c1.1-0.7,2.2-1.3,3.3-1.9c1.1-0.6,2.3-1.1,3.4-1.5
					c1.2-0.4,2.3-0.8,3.5-1.1c1.1-0.3,2.3-0.5,3.3-0.7c1.1-0.2,2.1-0.3,3-0.3c0.9,0,1.8,0,2.6,0.1c0.4,0.1,0.7,0.1,1.1,0.1
					c0.3,0.1,0.6,0.1,0.9,0.2c0.5,0.1,1,0.3,1.2,0.4C480.6,47.1,480.8,47.1,480.8,47.1z"/>
				<path class="st2" d="M450.3,62c0,0-0.2,0.3-0.5,0.9c-0.1,0.3-0.4,0.6-0.6,0.9c-0.2,0.4-0.6,0.7-0.9,1.1
					c-0.3,0.4-0.8,0.8-1.2,1.2c-0.4,0.4-1,0.8-1.5,1.2c-0.5,0.4-1.1,0.8-1.7,1.1c-0.6,0.4-1.2,0.7-1.8,1c-0.6,0.3-1.3,0.6-1.9,0.8
					c-0.6,0.3-1.3,0.5-1.9,0.7c-0.6,0.2-1.3,0.4-1.8,0.5c-0.6,0.1-1.2,0.3-1.7,0.3c-0.5,0.1-1,0.2-1.4,0.2c-0.4,0-0.8,0.1-1.1,0.1
					c-0.6,0-1,0-1,0s0.4,0.1,1,0.2c0.3,0.1,0.7,0.1,1.1,0.1c0.4,0,0.9,0,1.5,0c0.5,0,1.1-0.1,1.8-0.2c0.6-0.1,1.3-0.2,1.9-0.4
					c0.7-0.2,1.4-0.3,2-0.6c0.7-0.2,1.3-0.5,2-0.8c0.6-0.4,1.3-0.7,1.9-1.1c0.6-0.4,1.2-0.8,1.7-1.3c0.5-0.4,1-0.9,1.5-1.4
					c0.4-0.5,0.8-0.9,1.1-1.4c0.2-0.2,0.3-0.4,0.5-0.7c0.1-0.2,0.2-0.4,0.3-0.6c0.2-0.4,0.4-0.7,0.5-1.1
					C450.2,62.4,450.3,62,450.3,62z"/>
				<path class="st2" d="M432.6,82.2c0,0,0-0.1,0-0.3c0-0.2,0.1-0.5,0.2-0.9c0.2-0.7,1-1.6,2.1-2.2c0.5-0.3,1.2-0.6,1.9-0.7
					c0.7-0.2,1.5-0.2,2.2-0.1c0.7,0.2,1.4,0.6,1.9,1.2c0.5,0.6,0.9,1.3,1,2.1c0.1,0.8-0.1,1.5-0.5,2.2c-0.5,0.7-1,1.2-1.7,1.5
					c-0.7,0.3-1.4,0.3-2,0.1c-0.3-0.1-0.6-0.3-0.8-0.5l-0.1-0.1c0,0,0,0,0,0l0-0.1l-0.2-0.2c-0.1-0.1-0.1-0.2-0.2-0.4
					c-0.4-1.1,0.2-2.4,0.9-2.5c0.3-0.1,0.6,0.1,0.8,0.2c0.2,0.1,0.2,0.2,0.2,0.2s-0.1-0.1-0.2-0.2c-0.1-0.1-0.4-0.4-0.9-0.3
					c-0.4,0-0.9,0.4-1.1,0.9c-0.3,0.5-0.4,1.2-0.2,1.9c0,0.2,0.1,0.4,0.2,0.6l0.1,0.2l0,0.1c0.1,0.1,0,0,0.1,0.1l0.1,0.1
					c0.3,0.3,0.6,0.5,1,0.7c0.8,0.4,1.8,0.4,2.6,0.1c0.8-0.3,1.6-1,2.1-1.7c0.6-0.8,0.9-1.8,0.8-2.9c-0.1-1-0.6-1.9-1.3-2.6
					c-0.7-0.7-1.5-1.2-2.4-1.3c-1-0.2-1.7,0-2.5,0.2c-0.8,0.2-1.4,0.6-2,0.9c-1.2,0.8-1.8,1.8-2,2.6c-0.1,0.4-0.1,0.7-0.1,0.9
					C432.6,82.1,432.6,82.2,432.6,82.2z"/>
				<path class="st2" d="M442.1,54.5c0,1.4,1.1,2.5,2.5,2.5s2.5-1.1,2.5-2.5c0-1.4-1.1-2.5-2.5-2.5S442.1,53.1,442.1,54.5z"/>
				<path class="st2" d="M441,49.1c0,1,0.8,1.8,1.8,1.8c1,0,1.8-0.8,1.8-1.8c0-1-0.8-1.8-1.8-1.8C441.8,47.3,441,48.1,441,49.1z"/>
				<path class="st2" d="M437.8,45.6c0,0.8,0.7,1.5,1.5,1.5c0.8,0,1.5-0.7,1.5-1.5c0-0.8-0.7-1.5-1.5-1.5
					C438.4,44.1,437.8,44.8,437.8,45.6z"/>
			</g>
			<path class="st2" d="M574.4,54.1c0,0-0.1,0-0.2-0.1c-0.1-0.1-0.4-0.2-0.4-0.5c0-0.3,0.2-0.7,0.6-0.9c0.4-0.3,0.9-0.1,1.1,0.4
				c0.5,1,0.6,2.9-0.8,3.6c-0.7,0.4-1.5,0.4-2.4,0.2c-0.5-0.1-0.8-0.3-1.2-0.6c-0.2-0.2-0.4-0.3-0.5-0.5c-0.1-0.2-0.3-0.4-0.4-0.6
				c-0.4-0.9-0.4-2-0.2-3c0.3-1,0.8-2.1,1.6-2.9c0.4-0.4,0.8-0.8,1.3-1c0.6-0.3,1.1-0.6,1.7-0.8l0.9-0.3l0.9-0.1L577,47
				c0.2,0,0.3,0,0.5,0l1,0c2.5,0.3,5,1.9,6.5,4.3c0.8,1.1,1.3,2.5,1.4,3.9c0,0.7,0,1.4-0.2,2.1c-0.2,0.7-0.5,1.3-0.8,1.9
				c-0.4,0.6-0.8,1.1-1.3,1.6c-0.5,0.5-1.1,1-1.6,1.3c-1.1,0.8-2.4,1.2-3.7,1.5c-1.3,0.3-2.6,0.3-4,0.2l-1-0.1c-0.1,0-0.3,0-0.5-0.1
				l-0.5-0.1l-1-0.3l-0.9-0.4c-2.3-1-4.3-2.6-6.4-4c-2.1-1.4-4-2.5-5.9-3.6c-1.9-1.1-3.7-1.9-5.4-2.3c-0.4-0.1-0.8-0.2-1.2-0.3
				c-0.4-0.1-0.8-0.2-1.2-0.2c-0.7,0-1.4-0.1-2,0c-0.3,0-0.6,0-0.9,0.1c-0.3,0.1-0.5,0.1-0.8,0.2c-0.2,0-0.5,0.1-0.7,0.1
				c-0.2,0.1-0.4,0.1-0.5,0.2c-0.6,0.2-1,0.4-1,0.4l0,0.1c0,0,0.3-0.1,1-0.3c0.2,0,0.3-0.1,0.5-0.1c0.2,0,0.4-0.1,0.7-0.1
				c0.2,0,0.5-0.1,0.8-0.1c0.3,0,0.6,0,0.9,0c0.6,0,1.3,0,2,0.1c0.3,0,0.7,0.1,1.1,0.2c0.4,0.1,0.8,0.2,1.2,0.3
				c1.6,0.5,3.3,1.3,5.1,2.4c0.9,0.6,1.8,1.1,2.8,1.8c1,0.6,2,1.2,3,1.9c2,1.3,4,3.1,6.6,4.1l1,0.4l1,0.2l0.5,0.1
				c0.2,0.1,0.4,0.1,0.5,0.1l1,0.1c1.4,0.1,2.8,0.1,4.2-0.3c1.4-0.3,2.7-0.9,3.9-1.8c0.6-0.4,1.1-0.9,1.6-1.4c0.5-0.6,1-1.1,1.3-1.8
				c0.4-0.6,0.6-1.3,0.8-2.1c0.2-0.7,0.2-1.5,0.1-2.2c-0.1-1.5-0.7-2.9-1.5-4c-1.6-2.4-4-4.1-6.7-4.6l-1-0.1c-0.2,0-0.3,0-0.5,0
				l-0.5,0c-0.3,0-0.7,0.1-1,0.1c-0.3,0.1-0.7,0.2-1,0.3c-0.7,0.1-1.2,0.5-1.8,0.7c-0.6,0.3-1.1,0.7-1.6,1.2c-0.9,1-1.5,2.1-1.8,3.3
				c-0.3,1.2-0.3,2.5,0.3,3.6c0.1,0.3,0.3,0.5,0.5,0.7c0.2,0.2,0.4,0.4,0.6,0.6c0.5,0.3,1,0.6,1.4,0.7c1,0.3,2.1,0.2,2.9-0.3
				c0.8-0.5,1.3-1.4,1.3-2.3c0-0.8-0.1-1.5-0.5-2.1c-0.2-0.3-0.4-0.6-0.8-0.6c-0.3-0.1-0.6,0-0.8,0.2c-0.4,0.3-0.7,0.7-0.6,1.1
				c0,0.4,0.4,0.6,0.5,0.6C574.3,54.2,574.4,54.2,574.4,54.1L574.4,54.1z"/>
			<path class="st2" d="M587.7,67.9c0,0,0,0.1,0,0.3c0,0.2,0.2,0.5,0.6,0.6c0.4,0,0.8-0.2,1.1-0.6c0.2-0.2,0.3-0.5,0.2-0.9
				c0-0.4-0.3-0.6-0.6-0.8c-0.6-0.4-1.3-0.6-2-0.6c-0.8,0-1.7,0.4-2.3,1.2c-0.5,0.8-0.7,1.9-0.5,2.9c0.1,0.5,0.3,1,0.6,1.5
				c0.2,0.2,0.3,0.5,0.5,0.7c0.2,0.2,0.4,0.4,0.7,0.5c1,0.6,2.3,0.7,3.5,0.5c1.2-0.2,2.3-0.8,3.3-1.6c0.5-0.4,0.9-0.9,1.2-1.6
				c0.3-0.6,0.6-1.1,0.8-1.8c0.1-0.3,0.2-0.7,0.3-1c0-0.3,0.1-0.7,0.1-1l0.1-0.5c0-0.2,0-0.3,0-0.5l0-1c-0.3-2.8-1.9-5.4-4.1-7.1
				c-1.1-0.9-2.4-1.6-3.8-1.8c-0.7-0.1-1.4-0.1-2.2,0c-0.7,0.2-1.4,0.4-2,0.7c-0.7,0.3-1.2,0.7-1.8,1.3c-0.5,0.5-1,0.9-1.5,1.6
				c-0.9,1.2-1.5,2.5-1.9,3.9c-0.4,1.4-0.5,2.9-0.5,4.3l0.1,1.1c0,0.2,0,0.3,0.1,0.6l0.1,0.5l0.2,1l0.3,1c0.8,2.7,2.4,4.8,3.6,6.9
				c0.6,1,1.1,2.1,1.7,3.1c0.6,1,1.1,2,1.6,3c1,1.9,1.7,3.7,2.1,5.4c0.1,0.4,0.2,0.8,0.2,1.2c0,0.4,0.1,0.8,0.1,1.1
				c0,0.8,0.1,1.5,0,2.1c0,0.3,0,0.6-0.1,0.9c0,0.3-0.1,0.5-0.1,0.8c0,0.2-0.1,0.5-0.1,0.7c0,0.2-0.1,0.4-0.2,0.5
				c-0.2,0.6-0.3,1-0.3,1l0.1,0c0,0,0.1-0.3,0.4-1c0.1-0.2,0.1-0.3,0.2-0.5c0.1-0.2,0.1-0.4,0.2-0.7c0.1-0.2,0.1-0.5,0.2-0.8
				c0-0.3,0.1-0.6,0.1-0.9c0.1-0.6,0.1-1.3,0.1-2.1c0-0.4-0.1-0.8-0.1-1.2c0-0.4-0.1-0.8-0.2-1.3c-0.3-1.8-1-3.7-1.9-5.6
				c-1-2-1.9-4-3.2-6.2c-1.2-2.1-2.7-4.3-3.5-6.7l-0.3-0.9l-0.2-1l-0.1-0.5c0-0.1,0-0.3-0.1-0.5l-0.1-1c0-1.3,0-2.7,0.4-4
				c0.3-1.3,0.9-2.6,1.7-3.7c0.3-0.6,0.9-1.1,1.3-1.6c0.5-0.4,1-0.9,1.6-1.2c0.6-0.4,1.2-0.6,1.9-0.8c0.7-0.1,1.3-0.2,2-0.1
				c1.4,0.2,2.6,0.8,3.7,1.7c2.2,1.7,3.6,4.3,3.8,6.9l0,1c0,0.2,0,0.3,0,0.5l-0.1,0.5l-0.2,0.9l-0.3,0.9c-0.2,0.6-0.5,1.1-0.8,1.7
				c-0.3,0.5-0.7,0.9-1.1,1.3c-0.9,0.7-1.9,1.2-2.9,1.4c-1,0.2-2.1,0.1-2.9-0.3c-0.2-0.1-0.4-0.2-0.6-0.4c-0.2-0.1-0.3-0.3-0.4-0.5
				c-0.2-0.4-0.4-0.7-0.5-1.3c-0.2-0.9-0.1-1.8,0.3-2.4c0.8-1.4,2.6-1.2,3.6-0.7c0.5,0.3,0.6,0.8,0.3,1.2c-0.2,0.4-0.6,0.6-0.9,0.6
				c-0.3,0-0.4-0.2-0.5-0.4C587.8,67.9,587.8,67.9,587.7,67.9L587.7,67.9z"/>
			<g>
				<path class="st2" d="M560.6,54.8c0.6,0.8,1.7,1,2.5,0.4c0.8-0.6,1-1.7,0.4-2.5c-0.6-0.8-1.7-1-2.5-0.4
					C560.2,52.8,560,54,560.6,54.8z"/>
				<path class="st2" d="M557.4,52.8c0.4,0.6,1.2,0.7,1.8,0.3c0.6-0.4,0.7-1.2,0.3-1.8c-0.4-0.6-1.2-0.7-1.8-0.3
					C557.1,51.4,557,52.2,557.4,52.8z"/>
				<path class="st2" d="M554.3,51.8c0.3,0.5,1,0.6,1.5,0.3c0.5-0.3,0.6-1,0.3-1.5c-0.3-0.5-1-0.6-1.5-0.3
					C554.1,50.7,554,51.4,554.3,51.8z"/>
				<path class="st2" d="M551.5,51.3c0.3,0.4,0.8,0.5,1.1,0.2c0.4-0.3,0.5-0.8,0.2-1.2c-0.3-0.4-0.8-0.5-1.1-0.2
					C551.3,50.4,551.2,50.9,551.5,51.3z"/>
				<path class="st2" d="M549.4,51.1c0.2,0.3,0.6,0.3,0.8,0.2c0.3-0.2,0.3-0.6,0.2-0.8c-0.2-0.3-0.6-0.3-0.9-0.2
					S549.2,50.9,549.4,51.1z"/>
				<path class="st2" d="M547.4,51.3c0.1,0.2,0.4,0.2,0.6,0.1c0.2-0.1,0.2-0.4,0.1-0.6c-0.1-0.2-0.4-0.2-0.6-0.1
					C547.3,50.9,547.3,51.2,547.4,51.3z"/>
				<path class="st2" d="M546,51.9c0.1,0.2,0.3,0.2,0.4,0.1c0.1-0.1,0.2-0.3,0.1-0.5c-0.1-0.2-0.3-0.2-0.4-0.1
					C546,51.5,545.9,51.8,546,51.9z"/>
			</g>
			<g>
				<path class="st2" d="M586.5,82.8c-0.8-0.6-0.9-1.8-0.3-2.5c0.6-0.8,1.7-0.9,2.5-0.3c0.8,0.6,0.9,1.8,0.3,2.5
					C588.3,83.3,587.2,83.4,586.5,82.8z"/>
				<path class="st2" d="M588.1,86.2c-0.5-0.4-0.6-1.3-0.2-1.8c0.4-0.6,1.2-0.6,1.8-0.2c0.5,0.5,0.6,1.3,0.2,1.8
					C589.5,86.6,588.7,86.7,588.1,86.2z"/>
				<path class="st2" d="M588.9,89.5c-0.5-0.4-0.5-1.1-0.2-1.5c0.4-0.5,1-0.5,1.5-0.2c0.5,0.4,0.5,1.1,0.2,1.5
					C590,89.8,589.3,89.8,588.9,89.5z"/>
				<path class="st2" d="M589.2,92.4c-0.4-0.3-0.4-0.8-0.1-1.2c0.3-0.4,0.8-0.4,1.2-0.1c0.4,0.3,0.4,0.8,0.1,1.2
					C590.1,92.6,589.6,92.7,589.2,92.4z"/>
				<path class="st2" d="M589.3,94.5c-0.3-0.2-0.3-0.6-0.1-0.9c0.2-0.3,0.6-0.3,0.8-0.1c0.3,0.2,0.3,0.6,0.1,0.9
					C589.9,94.7,589.5,94.8,589.3,94.5z"/>
				<path class="st2" d="M588.9,96.5c-0.2-0.1-0.2-0.4-0.1-0.6c0.1-0.2,0.4-0.2,0.6-0.1c0.2,0.1,0.2,0.4,0.1,0.6
					C589.3,96.6,589.1,96.7,588.9,96.5z"/>
				<path class="st2" d="M588.3,97.9c-0.1-0.1-0.2-0.3,0-0.4c0.1-0.1,0.3-0.1,0.5,0c0.1,0.1,0.2,0.3,0,0.4
					C588.6,98,588.4,98,588.3,97.9z"/>
			</g>
		</g>
		<g>
			<line class="st4" x1="243.6" y1="101.2" x2="243.6" y2="243.7"/>
			<line class="st5" x1="240" y1="87.1" x2="240" y2="229.6"/>
			<line class="st5" x1="247.2" y1="101.7" x2="247.2" y2="250.9"/>
		</g>
		<g>
			<line class="st4" x1="591.6" y1="101.2" x2="591.6" y2="243.7"/>
			<line class="st5" x1="595.3" y1="87.1" x2="595.3" y2="229.6"/>
			<line class="st5" x1="587.9" y1="101.7" x2="587.9" y2="250.9"/>
		</g>
		<g>
			<line class="st5" x1="270.7" y1="45.1" x2="356.7" y2="45.1"/>
			<line class="st6" x1="294.4" y1="48.8" x2="375" y2="48.8"/>
			<line class="st6" x1="294.4" y1="50.4" x2="375" y2="50.4"/>
		</g>
		<g>
			<line class="st5" x1="567" y1="45.4" x2="481.6" y2="45.4"/>
			<line class="st6" x1="543.5" y1="49.1" x2="463.4" y2="49.1"/>
			<line class="st6" x1="543.5" y1="50.8" x2="463.4" y2="50.8"/>
		</g>
		<g>
			<g>
				<rect x="243.6" y="381.6" class="st2" width="2" height="89.7"/>
			</g>
			<g>
				<rect x="240.5" y="372.8" class="st2" width="1" height="89.7"/>
			</g>
			<g>
				<rect x="247.7" y="382" class="st2" width="1" height="93.9"/>
			</g>
		</g>
		<g>
			<g>
				
					<rect x="314.6" y="541.3" transform="matrix(1 -1.949996e-03 1.949996e-03 1 -1.0568 0.7019)" class="st2" width="89.7" height="2"/>
			</g>
			<g>
				
					<rect x="323.4" y="538.2" transform="matrix(1 -1.999996e-03 1.999996e-03 1 -1.0767 0.7377)" class="st2" width="89.7" height="1"/>
			</g>
			<g>
				
					<rect x="310.1" y="545.4" transform="matrix(1 -1.999996e-03 1.999996e-03 1 -1.0911 0.7151)" class="st2" width="93.9" height="1"/>
			</g>
		</g>
		<g>
			<g>
				<g>
					<path class="st2" d="M264.6,514.6c0,0,0.1,0,0.3,0.1c0.2,0,0.5,0.1,0.6-0.3c0.1-0.3,0.1-0.8-0.1-1.2c-0.2-0.5-0.5-1-1.1-1.2
						c-0.6-0.2-1.3,0-1.9,0.5c-0.6,0.5-1.2,1.2-1.2,2c0,0.2,0,0.5,0,0.7l0,0.3l0.1,0.3c0.1,0.4,0.4,0.8,0.8,1.1
						c0.4,0.3,0.8,0.5,1.3,0.6c0.5,0.1,1,0.2,1.6,0.1c0.5,0,1.1-0.2,1.6-0.4c0.3-0.1,0.5-0.2,0.7-0.4c0.3-0.2,0.5-0.4,0.7-0.5
						c0.9-0.8,1.6-1.8,2-3c0.8-2.4,0.5-5.4-1.1-7.7c-0.8-1.1-2-2.1-3.4-2.6c-0.7-0.2-1.4-0.4-2.2-0.4c-0.7,0-1.5,0.1-2.2,0.3
						c-1.4,0.4-2.8,1.2-3.8,2.3c-1,1.1-1.7,2.5-2.2,3.9c-1,2.9-1.2,6-1,9c0.3,3,0.9,6,0.6,9c-0.1,1.5-0.6,3-1.6,4.2
						c-1,1.2-2.6,1.6-4,1.7l-0.3,0l-0.3,0l-0.5,0c-0.3,0-0.7-0.1-1.1-0.2c-0.7-0.3-1.3-0.6-1.7-1.2c-0.9-1-1.3-2.4-1.3-3.6
						c0-1.2,0.4-2.4,1-3.3c0.3-0.5,0.7-0.9,1.1-1.2c0.4-0.3,0.9-0.6,1.4-0.7c0.5-0.1,1-0.1,1.5,0c0.5,0.1,0.9,0.5,1.1,0.9
						c0.2,0.4,0.3,0.8,0.3,1.2c0,0.4-0.1,0.8-0.3,1.1c-0.3,0.6-0.7,1.1-1.1,1.5c-0.4,0.3-1,0.5-1.3,0.3c-0.2-0.1-0.3-0.3-0.3-0.4
						c-0.1-0.1-0.1-0.2-0.1-0.3c0-0.2-0.1-0.3-0.1-0.3l0.1,0c0,0,0,0.1,0.1,0.3c0,0.1,0.1,0.2,0.1,0.3c0.1,0.1,0.2,0.2,0.3,0.3
						c0.3,0.2,0.7,0,1.1-0.3c0.4-0.3,0.7-0.8,1-1.4c0.1-0.3,0.2-0.6,0.2-1c0-0.3-0.1-0.7-0.3-1c-0.4-0.6-1.3-0.9-2.1-0.6
						c-0.4,0.1-0.8,0.3-1.2,0.6c-0.3,0.3-0.7,0.7-0.9,1.1c-0.5,0.8-0.9,1.9-0.8,3c0,1.1,0.4,2.2,1.2,3.1c0.4,0.4,0.9,0.7,1.4,0.9
						c0.3,0.1,0.5,0.2,0.8,0.2l0.5,0l0.2,0l0.2,0c1.3,0,2.5-0.5,3.4-1.4c0.9-0.9,1.2-2.3,1.4-3.7c0.3-2.8-0.2-5.8-0.5-8.8
						c-0.2-3.1,0.1-6.3,1.2-9.2c0.6-1.5,1.3-2.9,2.4-4c1.1-1.1,2.5-2,4-2.3c0.7-0.1,1.5-0.3,2.3-0.3c0.8,0,1.5,0.1,2.3,0.3
						c1.5,0.5,2.7,1.4,3.6,2.6c1.8,2.4,2.3,5.6,1.4,8.2c-0.9,2.6-3.2,4.7-5.7,4.8c-0.6,0.1-1.2,0-1.8-0.1c-0.6-0.1-1.1-0.4-1.6-0.8
						c-1-0.7-1.2-2-1-2.9c0.1-1.1,0.8-1.8,1.5-2.3c0.7-0.5,1.6-0.7,2.3-0.4c0.7,0.3,1,1,1.2,1.5c0.1,0.5,0.2,1,0,1.4
						c-0.1,0.2-0.3,0.3-0.4,0.3c-0.1,0-0.3,0-0.4,0C264.7,514.7,264.6,514.7,264.6,514.6L264.6,514.6z"/>
					<path class="st2" d="M240.9,475.7c0,0,0.1,0.1,0.3,0.2c0.2,0.1,0.6,0.2,1,0.5c0.2,0.1,0.4,0.2,0.7,0.4c0.2,0.2,0.5,0.3,0.7,0.5
						c0.5,0.4,1.1,0.9,1.6,1.5c0.5,0.6,1.1,1.2,1.6,2c0.5,0.7,1.1,1.5,1.5,2.4c1,1.7,1.8,3.7,2.3,5.8c0.3,1,0.5,2.1,0.7,3.1
						c0.2,1,0.3,2.1,0.3,3.1c0.1,1,0.1,2,0.1,2.9c-0.1,0.9,0,1.8-0.2,2.6c-0.1,0.8-0.2,1.5-0.3,2.1c-0.1,0.6-0.2,1.2-0.3,1.6
						c-0.2,0.9-0.3,1.4-0.3,1.4s0.1-0.5,0.2-1.4c0.1-0.4,0.1-1,0.2-1.6c0.1-0.6,0.1-1.4,0.1-2.1c0.1-0.8,0-1.6,0-2.5
						c-0.1-0.9-0.1-1.8-0.2-2.8c-0.1-1-0.3-2-0.4-3c-0.2-1-0.4-2-0.7-3c-0.3-1-0.6-2-1-2.9c-0.4-0.9-0.8-1.9-1.2-2.7
						c-0.4-0.9-0.9-1.7-1.4-2.4c-0.5-0.7-1-1.4-1.5-2c-0.5-0.6-1-1.1-1.5-1.5c-0.2-0.2-0.5-0.4-0.7-0.6c-0.2-0.2-0.4-0.3-0.6-0.4
						c-0.4-0.3-0.7-0.4-0.9-0.6C241,475.7,240.9,475.7,240.9,475.7z"/>
					<path class="st2" d="M248.8,502.2c0,0-0.1,0.3-0.2,0.8c-0.1,0.2-0.1,0.6-0.2,0.9c-0.1,0.3-0.1,0.7-0.2,1.2
						c-0.1,0.4,0,0.9-0.1,1.4c0,0.5,0,1,0.1,1.6c0.1,0.5,0.1,1.1,0.3,1.6c0.1,0.6,0.3,1.1,0.4,1.7c0.2,0.5,0.3,1.1,0.6,1.6
						c0.2,0.5,0.4,1,0.7,1.5c0.2,0.5,0.5,1,0.7,1.4c0.3,0.4,0.5,0.8,0.7,1.2c0.2,0.4,0.5,0.7,0.7,1c0.2,0.3,0.4,0.5,0.6,0.7
						c0.3,0.4,0.5,0.6,0.5,0.6s-0.2-0.2-0.6-0.5c-0.2-0.2-0.4-0.4-0.7-0.6c-0.3-0.2-0.5-0.6-0.8-0.9c-0.3-0.3-0.6-0.7-0.9-1.2
						c-0.3-0.4-0.6-0.9-0.8-1.4c-0.3-0.5-0.5-1-0.7-1.6c-0.2-0.5-0.4-1.1-0.6-1.7c-0.1-0.6-0.3-1.2-0.4-1.7
						c-0.1-0.6-0.2-1.2-0.2-1.7c0-0.6,0-1.1,0-1.6c0.1-0.5,0.1-1,0.2-1.4c0-0.2,0.1-0.4,0.1-0.6c0.1-0.2,0.1-0.4,0.2-0.6
						c0.1-0.3,0.2-0.6,0.3-0.9C248.6,502.5,248.8,502.2,248.8,502.2z"/>
					<path class="st2" d="M246.5,523.8c0,0,0.1-0.1,0.2-0.2c0.1-0.1,0.3-0.3,0.4-0.6c0.3-0.5,0.4-1.4,0.2-2.4
						c-0.1-0.5-0.3-1-0.6-1.5c-0.3-0.5-0.7-1-1.2-1.3c-0.5-0.3-1.1-0.5-1.7-0.5c-0.6,0-1.3,0.1-1.8,0.5c-0.5,0.3-0.9,0.9-1,1.5
						c-0.1,0.6-0.1,1.3,0.1,1.8c0.2,0.6,0.6,1,1,1.3c0.2,0.1,0.5,0.2,0.8,0.2l0.1,0c0,0,0.1,0,0,0l0.1,0l0.2,0c0.1,0,0.2,0,0.3-0.1
						c0.9-0.4,1.3-1.4,1-1.9c-0.1-0.3-0.4-0.3-0.5-0.4c-0.2,0-0.3,0-0.3,0s0.1,0,0.3,0c0.2,0,0.5,0.1,0.7,0.3
						c0.2,0.3,0.2,0.7,0.1,1.2c-0.1,0.4-0.5,0.9-1,1.2c-0.1,0.1-0.3,0.1-0.5,0.2l-0.2,0l-0.1,0c-0.1,0-0.1,0-0.1,0l-0.1,0
						c-0.3,0-0.6-0.1-1-0.2c-0.6-0.3-1.2-0.8-1.5-1.5c-0.3-0.7-0.3-1.5-0.1-2.2c0.2-0.8,0.6-1.5,1.3-2c0.7-0.5,1.5-0.7,2.3-0.6
						c0.8,0,1.5,0.3,2.1,0.7c0.6,0.5,1,1.1,1.3,1.6c0.3,0.6,0.5,1.2,0.5,1.7c0.2,1.1-0.1,2.1-0.5,2.6c-0.2,0.3-0.4,0.4-0.5,0.5
						C246.6,523.8,246.5,523.8,246.5,523.8z"/>
					<path class="st2" d="M257.3,504.3c-0.8,0.8-2,0.9-2.9,0.1c-0.8-0.8-0.9-2-0.1-2.9c0.8-0.8,2-0.9,2.9-0.1
						C258,502.2,258,503.5,257.3,504.3z"/>
					<path class="st2" d="M260.8,501.7c-0.5,0.6-1.5,0.6-2,0.1c-0.6-0.5-0.6-1.5-0.1-2c0.5-0.6,1.5-0.6,2-0.1
						C261.3,500.2,261.4,501.1,260.8,501.7z"/>
					<path class="st2" d="M264.7,501.5c-0.5,0.5-1.2,0.5-1.7,0.1c-0.5-0.5-0.5-1.2-0.1-1.7c0.5-0.5,1.2-0.5,1.7-0.1
						C265.1,500.3,265.1,501,264.7,501.5z"/>
				</g>
				<g>
					<path class="st2" d="M271.4,522.2c0,0,0-0.1-0.1-0.3c0-0.2,0-0.5,0.3-0.6c0.3-0.1,0.8,0,1.2,0.2c0.4,0.2,1,0.6,1.1,1.1
						c0.1,0.6-0.1,1.3-0.7,1.9c-0.5,0.5-1.3,1-2.1,1c-0.2,0-0.5,0-0.7-0.1l-0.3-0.1l-0.3-0.1c-0.4-0.2-0.8-0.5-1-0.9
						c-0.2-0.4-0.4-0.9-0.5-1.4c-0.1-0.5,0-1,0.1-1.6c0.1-0.5,0.3-1.1,0.6-1.6c0.1-0.2,0.3-0.5,0.5-0.7c0.2-0.2,0.4-0.5,0.6-0.6
						c0.9-0.8,2-1.4,3.2-1.7c2.4-0.6,5.4,0,7.5,1.8c1,0.9,1.9,2.1,2.1,3.5c0.1,0.7,0.2,1.4,0.1,2.2c-0.1,0.7-0.3,1.4-0.5,2.2
						c-0.5,1.4-1.5,2.6-2.7,3.5c-1.2,0.9-2.7,1.5-4.1,1.8c-3,0.7-6,0.6-8.9,0.1c-2.9-0.6-5.8-1.4-8.7-1.4c-1.5,0-3,0.3-4.3,1.2
						c-1.3,0.9-1.9,2.4-2.1,3.7l0,0.3l0,0.3l0,0.5c0,0.3,0.1,0.7,0.1,1.1c0.2,0.7,0.5,1.3,0.9,1.8c0.9,1,2.2,1.5,3.4,1.6
						c1.2,0.1,2.4-0.2,3.4-0.7c0.5-0.3,0.9-0.6,1.3-1c0.4-0.4,0.7-0.9,0.8-1.3c0.2-0.5,0.2-1,0.1-1.5c-0.1-0.5-0.4-0.9-0.7-1.2
						c-0.4-0.3-0.8-0.4-1.2-0.4c-0.4,0-0.8,0.1-1.1,0.2c-0.7,0.2-1.2,0.6-1.6,1c-0.4,0.4-0.6,0.9-0.4,1.3c0.1,0.2,0.2,0.3,0.3,0.4
						c0.1,0.1,0.2,0.1,0.3,0.2c0.2,0.1,0.3,0.1,0.3,0.1l0-0.1c0,0-0.1,0-0.2-0.1c-0.1,0-0.2-0.1-0.3-0.2c-0.1-0.1-0.2-0.2-0.3-0.3
						c-0.1-0.3,0.1-0.7,0.4-1.1c0.4-0.3,0.9-0.7,1.5-0.8c0.3-0.1,0.6-0.1,1-0.1c0.3,0,0.7,0.2,1,0.4c0.6,0.4,0.7,1.3,0.4,2.1
						c-0.2,0.4-0.4,0.8-0.7,1.1c-0.3,0.3-0.7,0.6-1.2,0.8c-0.9,0.5-1.9,0.7-3,0.6c-1.1-0.1-2.2-0.6-2.9-1.4
						c-0.4-0.4-0.6-0.9-0.8-1.5c0-0.3-0.1-0.5-0.1-0.8l0-0.5l0-0.2l0-0.2c0.2-1.2,0.7-2.4,1.8-3.2c1-0.8,2.4-1,3.8-1
						c2.8-0.1,5.6,0.7,8.6,1.3c3,0.4,6.2,0.4,9.2-0.4c1.5-0.4,3-1.1,4.2-2c1.2-1,2.2-2.2,2.8-3.7c0.2-0.7,0.5-1.4,0.6-2.2
						c0.1-0.8,0.1-1.5-0.1-2.2c-0.3-1.5-1.1-2.8-2.1-3.8c-2.1-2-5.2-2.8-7.9-2.1c-2.7,0.6-5,2.7-5.4,5.2c-0.1,0.6-0.1,1.2-0.1,1.8
						c0.1,0.6,0.3,1.1,0.6,1.6c0.6,1,1.9,1.3,2.8,1.3c1.1,0,1.9-0.6,2.5-1.2c0.6-0.6,0.9-1.5,0.7-2.2c-0.2-0.8-0.8-1.1-1.3-1.3
						c-0.5-0.2-1-0.3-1.4-0.1c-0.2,0.1-0.3,0.2-0.4,0.4c-0.1,0.1,0,0.3,0,0.4C271.3,522.1,271.4,522.2,271.4,522.2L271.4,522.2z"/>
					<path class="st2" d="M307,549c0,0,0-0.1-0.1-0.4c-0.1-0.2-0.2-0.6-0.4-1c-0.1-0.2-0.2-0.4-0.3-0.7c-0.1-0.2-0.3-0.5-0.4-0.8
						c-0.3-0.5-0.7-1.1-1.2-1.7c-0.5-0.6-1.1-1.2-1.8-1.8c-0.7-0.6-1.4-1.2-2.2-1.7c-1.6-1.1-3.5-2.1-5.4-2.8c-1-0.4-2-0.6-3-0.9
						c-1-0.2-2-0.5-3-0.6c-1-0.2-1.9-0.2-2.8-0.3c-0.9,0-1.7-0.1-2.5-0.1c-0.8,0-1.5,0-2.1,0.1c-0.6,0-1.2,0.1-1.6,0.2
						c-0.9,0.1-1.4,0.2-1.4,0.2s0.5,0,1.4,0c0.5,0,1,0,1.6,0c0.6,0,1.3,0,2.1,0.1c0.8,0,1.6,0.1,2.5,0.2c0.9,0.1,1.8,0.3,2.7,0.5
						c0.9,0.2,1.9,0.4,2.9,0.7c1,0.3,2,0.6,2.9,0.9c0.9,0.4,1.9,0.8,2.8,1.2c0.9,0.5,1.7,0.9,2.5,1.5c0.8,0.5,1.5,1.1,2.2,1.6
						c0.7,0.6,1.3,1.1,1.8,1.7c0.5,0.6,1,1.1,1.3,1.6c0.2,0.3,0.3,0.5,0.5,0.7c0.1,0.2,0.3,0.4,0.4,0.6c0.2,0.4,0.4,0.7,0.5,0.9
						C306.9,548.9,307,549,307,549z"/>
					<path class="st2" d="M281.8,538.9c0,0-0.3,0.1-0.8,0.2c-0.2,0.1-0.6,0.1-0.9,0.1c-0.3,0-0.7,0.1-1.2,0.1c-0.4,0-0.9,0-1.4-0.1
						c-0.5,0-1-0.1-1.5-0.2c-0.5-0.1-1-0.2-1.6-0.4c-0.5-0.1-1.1-0.4-1.6-0.6c-0.5-0.2-1-0.4-1.5-0.7c-0.5-0.2-1-0.5-1.4-0.8
						c-0.4-0.3-0.9-0.6-1.3-0.8c-0.4-0.3-0.8-0.6-1.1-0.8c-0.3-0.3-0.6-0.5-0.9-0.8c-0.3-0.2-0.5-0.4-0.6-0.6
						c-0.3-0.4-0.5-0.6-0.5-0.6s0.1,0.2,0.4,0.7c0.1,0.2,0.3,0.5,0.5,0.7c0.2,0.3,0.5,0.6,0.8,0.9c0.3,0.3,0.7,0.6,1,1
						c0.4,0.3,0.8,0.6,1.3,1c0.5,0.3,0.9,0.6,1.4,0.9c0.5,0.3,1,0.5,1.6,0.8c0.6,0.2,1.1,0.4,1.7,0.6c0.6,0.2,1.1,0.3,1.7,0.4
						c0.5,0.1,1.1,0.1,1.6,0.1c0.5,0,1,0,1.4-0.1c0.2,0,0.4-0.1,0.6-0.1c0.2,0,0.4-0.1,0.6-0.1c0.4-0.1,0.7-0.2,0.9-0.3
						C281.5,539,281.8,538.9,281.8,538.9z"/>
					<path class="st2" d="M260.3,539.1c0,0,0.1-0.1,0.2-0.2c0.1-0.1,0.3-0.2,0.6-0.3c0.6-0.2,1.5-0.3,2.4,0.1c0.5,0.2,1,0.4,1.4,0.7
						c0.5,0.3,0.9,0.8,1.2,1.3c0.3,0.5,0.4,1.1,0.3,1.8c0,0.6-0.3,1.2-0.7,1.7c-0.4,0.5-1,0.8-1.6,0.8c-0.6,0.1-1.3,0-1.8-0.2
						c-0.5-0.2-0.9-0.6-1.1-1.1c-0.1-0.3-0.1-0.5-0.1-0.8v-0.1c0,0,0-0.1,0,0l0,0l0-0.2c0-0.1,0.1-0.2,0.1-0.3
						c0.5-0.8,1.5-1.1,2-0.8c0.2,0.2,0.3,0.4,0.3,0.6c0,0.2,0,0.3,0,0.3s0-0.1,0-0.3c0-0.2,0-0.4-0.3-0.7c-0.3-0.2-0.7-0.3-1.2-0.2
						c-0.5,0.1-1,0.4-1.3,0.9c-0.1,0.1-0.2,0.3-0.2,0.4l-0.1,0.2l0,0.1c0,0.1,0,0.1,0,0.1l0,0.1c0,0.3,0,0.6,0.1,1
						c0.2,0.7,0.7,1.3,1.4,1.6c0.7,0.3,1.4,0.4,2.2,0.4c0.8-0.1,1.6-0.4,2.1-1.1c0.5-0.6,0.8-1.4,0.9-2.2c0.1-0.8-0.1-1.5-0.5-2.2
						c-0.4-0.7-0.9-1-1.5-1.4c-0.5-0.3-1.1-0.6-1.6-0.7c-1.1-0.3-2.1-0.1-2.6,0.2c-0.3,0.1-0.5,0.3-0.6,0.4
						C260.4,539.1,260.3,539.1,260.3,539.1z"/>
					<path class="st2" d="M280.7,530.6c-0.9,0.6-1.1,1.9-0.5,2.8c0.6,0.9,1.9,1.1,2.8,0.4c0.9-0.6,1.1-1.9,0.5-2.8
						C282.8,530.2,281.6,530,280.7,530.6z"/>
					<path class="st2" d="M283.7,527.4c-0.7,0.5-0.8,1.3-0.4,2c0.5,0.6,1.3,0.8,2,0.3c0.6-0.5,0.8-1.3,0.4-2
						C285.3,527.1,284.4,527,283.7,527.4z"/>
					<path class="st2" d="M284.4,523.7c-0.5,0.4-0.7,1.1-0.3,1.7c0.4,0.5,1.1,0.6,1.7,0.3c0.5-0.4,0.7-1.1,0.3-1.7
						C285.7,523.4,285,523.3,284.4,523.7z"/>
				</g>
			</g>
			<path class="st2" d="M258,475c0,0,0.1,0,0.2-0.1c0.1-0.1,0.3-0.2,0.2-0.5c-0.1-0.2-0.4-0.5-0.8-0.6c-0.4-0.2-0.9-0.3-1.3-0.1
				c-0.5,0.2-0.7,0.8-0.8,1.4c-0.1,0.6,0,1.3,0.5,1.8c0.1,0.1,0.3,0.3,0.4,0.4l0.2,0.2l0.2,0.1c0.3,0.2,0.7,0.2,1.1,0.2
				c0.4,0,0.8-0.2,1.1-0.4c0.4-0.2,0.7-0.5,1-0.9c0.3-0.3,0.5-0.7,0.7-1.2c0.1-0.2,0.1-0.4,0.2-0.7c0-0.3,0.1-0.5,0.1-0.7
				c0.1-1-0.1-2-0.6-2.9c-0.9-1.8-2.9-3.3-5.1-3.7c-1.1-0.2-2.3,0-3.4,0.5c-0.5,0.3-1,0.6-1.4,1.1c-0.4,0.4-0.8,0.9-1.1,1.5
				c-0.6,1-0.9,2.3-0.8,3.5c0.1,1.2,0.5,2.4,1,3.5c1.2,2.2,2.9,4.1,4.7,5.6c1.9,1.5,4,2.9,5.6,4.7c0.8,0.9,1.4,2,1.5,3.3
				c0.1,1.3-0.5,2.4-1.3,3.2l-0.1,0.2l-0.2,0.2l-0.3,0.3c-0.2,0.2-0.5,0.3-0.7,0.5c-0.5,0.2-1.1,0.4-1.6,0.4c-1.1,0-2.1-0.6-2.8-1.3
				c-0.7-0.7-1.2-1.6-1.4-2.5c-0.1-0.4-0.1-0.9-0.1-1.3c0-0.4,0.2-0.9,0.4-1.2c0.2-0.4,0.5-0.7,0.9-0.8c0.3-0.2,0.8-0.2,1.1-0.2
				c0.4,0.1,0.7,0.3,0.9,0.5c0.2,0.2,0.4,0.5,0.5,0.8c0.2,0.5,0.3,1,0.2,1.5c0,0.4-0.2,0.8-0.6,0.9c-0.2,0-0.3,0-0.4,0
				c-0.1,0-0.2-0.1-0.3-0.1c-0.1-0.1-0.2-0.1-0.2-0.1l0-0.1c0,0,0.1,0,0.2,0.1c0.1,0,0.2,0.1,0.3,0.1c0.1,0,0.2,0,0.4,0
				c0.3-0.1,0.4-0.4,0.4-0.8c0-0.4-0.1-0.9-0.3-1.4c-0.1-0.2-0.2-0.5-0.4-0.7c-0.2-0.2-0.5-0.3-0.8-0.4c-0.6-0.1-1.2,0.2-1.5,0.9
				c-0.2,0.3-0.3,0.7-0.3,1c0,0.4,0,0.8,0.1,1.2c0.2,0.8,0.6,1.6,1.3,2.2c0.7,0.6,1.5,1,2.4,1c0.5,0,0.9-0.1,1.3-0.3
				c0.2-0.1,0.4-0.2,0.6-0.4l0.3-0.3l0.1-0.1l0.1-0.1c0.7-0.8,1.2-1.7,1.1-2.8c-0.1-1-0.7-2-1.4-2.9c-1.5-1.8-3.5-3.1-5.4-4.7
				c-1.9-1.6-3.6-3.6-4.7-5.9c-0.5-1.1-0.9-2.4-1-3.7c-0.1-1.3,0.2-2.5,0.9-3.6c0.3-0.5,0.7-1,1.1-1.5c0.4-0.5,0.9-0.8,1.5-1.1
				c1.1-0.6,2.4-0.8,3.6-0.7c2.4,0.3,4.5,1.8,5.6,3.8c1.1,2,0.9,4.5-0.4,6c-0.3,0.4-0.7,0.7-1.1,1c-0.4,0.3-0.9,0.4-1.3,0.5
				c-1,0.2-1.9-0.5-2.3-1c-0.6-0.6-0.6-1.5-0.6-2.2c0.1-0.7,0.5-1.3,1-1.6c0.6-0.3,1.1,0,1.5,0.1c0.4,0.2,0.7,0.5,0.8,0.8
				c0,0.2,0,0.3,0,0.4c-0.1,0.1-0.2,0.2-0.2,0.2C258.1,475,258,475.1,258,475L258,475z"/>
			<path class="st2" d="M307.4,532.1c0,0,0-0.1,0.1-0.2c0.1-0.1,0.3-0.3,0.5-0.1c0.2,0.1,0.4,0.4,0.6,0.8c0.1,0.4,0.2,0.9,0,1.3
				c-0.3,0.4-0.8,0.7-1.5,0.7c-0.6,0-1.3-0.2-1.8-0.7c-0.1-0.1-0.3-0.3-0.3-0.4l-0.1-0.2l-0.1-0.3c-0.1-0.3-0.2-0.7-0.1-1.1
				c0.1-0.4,0.3-0.7,0.5-1.1c0.3-0.3,0.6-0.6,1-0.9c0.4-0.2,0.8-0.5,1.2-0.6c0.2-0.1,0.4-0.1,0.7-0.1c0.3,0,0.5,0,0.7,0
				c1,0,2,0.3,2.8,0.9c1.7,1.1,3.1,3.1,3.2,5.4c0.1,1.1-0.2,2.3-0.8,3.3c-0.3,0.5-0.7,0.9-1.2,1.3c-0.5,0.4-1,0.7-1.6,0.9
				c-1.1,0.5-2.4,0.7-3.6,0.5c-1.2-0.2-2.4-0.7-3.4-1.3c-2.1-1.3-3.8-3.2-5.2-5.2c-1.3-2-2.5-4.2-4.2-6c-0.8-0.9-1.9-1.6-3.1-1.8
				c-1.2-0.2-2.5,0.3-3.3,1l-0.2,0.1l-0.2,0.2l-0.3,0.3c-0.2,0.2-0.4,0.5-0.5,0.7c-0.3,0.5-0.5,1-0.5,1.6c-0.1,1.1,0.4,2.1,1,2.9
				c0.6,0.8,1.5,1.3,2.3,1.6c0.4,0.1,0.9,0.2,1.3,0.2c0.4,0,0.9-0.1,1.2-0.3c0.4-0.2,0.7-0.4,0.9-0.8c0.2-0.3,0.3-0.7,0.2-1.1
				c-0.1-0.4-0.2-0.7-0.4-0.9c-0.2-0.3-0.5-0.4-0.7-0.6c-0.5-0.3-1-0.4-1.5-0.3c-0.4,0-0.9,0.2-1,0.5c0,0.2,0,0.3,0,0.4
				c0,0.1,0.1,0.2,0.1,0.3c0.1,0.1,0.1,0.2,0.1,0.2l0.1,0c0,0,0-0.1-0.1-0.2c0-0.1-0.1-0.2-0.1-0.3c0-0.1,0-0.2,0-0.4
				c0.1-0.3,0.5-0.4,0.9-0.4c0.4,0,0.9,0.1,1.3,0.4c0.2,0.1,0.4,0.3,0.6,0.5c0.2,0.2,0.3,0.5,0.3,0.8c0.1,0.6-0.4,1.2-1,1.5
				c-0.3,0.1-0.7,0.2-1.1,0.2c-0.4,0-0.8-0.1-1.2-0.2c-0.8-0.3-1.5-0.7-2-1.5c-0.5-0.7-0.9-1.6-0.8-2.5c0-0.5,0.2-0.9,0.4-1.3
				c0.1-0.2,0.3-0.4,0.4-0.6l0.3-0.3l0.1-0.1l0.2-0.1c0.8-0.6,1.8-1,2.9-0.8c1,0.2,2,0.8,2.8,1.6c1.6,1.6,2.8,3.8,4.2,5.8
				c1.5,2,3.3,3.9,5.5,5.2c1.1,0.6,2.3,1.1,3.6,1.3c1.3,0.2,2.6,0,3.7-0.5c0.5-0.3,1.1-0.6,1.6-1c0.5-0.4,0.9-0.8,1.3-1.4
				c0.7-1,1-2.3,1-3.5c-0.1-2.4-1.4-4.7-3.3-5.9c-1.9-1.2-4.4-1.3-6-0.1c-0.4,0.3-0.8,0.6-1.1,1c-0.3,0.4-0.5,0.8-0.6,1.3
				c-0.2,0.9,0.3,1.9,0.8,2.4c0.6,0.6,1.4,0.8,2.1,0.7c0.7,0,1.4-0.4,1.7-0.9c0.3-0.6,0.1-1.1,0-1.5c-0.2-0.4-0.4-0.7-0.7-0.9
				c-0.2-0.1-0.3-0.1-0.4,0c-0.1,0.1-0.2,0.2-0.2,0.2C307.3,532,307.3,532,307.4,532.1L307.4,532.1z"/>
			<path class="st2" d="M270.1,517.7c0,0,0.5-0.9,1.2-2.5c0.4-0.8,0.9-1.7,1.5-2.8c0.6-1.1,1.3-2.3,2.3-3.5c1-1.2,2.2-2.4,3.8-3.3
				c1.6-0.8,3.6-1.2,5.5-0.9c1.9,0.3,3.8,0.8,5.6,1.7c1.8,0.9,3.5,2.1,4.7,3.8c0.6,0.9,0.8,2,0.9,3c0,1.1-0.2,2.1-0.6,3.1
				c-0.8,1.9-2.3,3.5-3.9,4.6c-0.8,0.6-1.7,1-2.7,1.2c-0.9,0.3-1.9,0.3-2.9,0.2c-1.8-0.3-3.4-1.3-4.4-2.7c-0.9-1.4-1-3.1-0.3-4.3
				c0.3-0.6,0.8-1,1.4-1.2c0.6-0.2,1.1-0.2,1.6-0.1c0.9,0.2,1.5,0.7,1.8,1.1c0.3,0.3,0.5,0.5,0.5,0.5l-0.1,0.1c0,0-0.2-0.2-0.6-0.5
				c-0.4-0.3-1-0.7-1.8-0.8c-0.8-0.2-1.9,0.2-2.3,1.2c-0.5,1-0.4,2.4,0.4,3.5c0.8,1.1,2.3,1.9,3.8,2.2c1.6,0.2,3.3-0.3,4.8-1.3
				c1.5-0.9,2.9-2.4,3.7-4.1c0.4-0.9,0.7-1.8,0.7-2.7c0-1-0.1-1.9-0.6-2.8c-0.5-0.8-1.1-1.6-1.9-2.3c-0.8-0.6-1.6-1.2-2.5-1.6
				c-1.8-0.9-3.7-1.3-5.5-1.4c-1.9-0.1-3.6,0.3-5,1.1c-1.5,0.8-2.6,1.9-3.6,3c-1,1.1-1.7,2.3-2.4,3.3c-0.6,1-1.2,2-1.7,2.7
				C270.8,516.9,270.2,517.8,270.1,517.7L270.1,517.7z"/>
			<path class="st2" d="M280.6,505.4c0.7-0.7,1.4-1.4,2.2-2c0.8-0.6,1.6-1.1,2.4-1.7c1.7-1.1,3.3-2.1,4.8-3.3
				c0.8-0.6,1.5-1.2,2.2-1.9c0.7-0.7,1.3-1.5,1.7-2.3c0.4-0.9,0.5-1.9,0.3-2.8c-0.2-0.9-0.6-1.8-1.2-2.6c-0.6-0.8-1.3-1.4-2.2-1.7
				c-0.9-0.3-1.8-0.5-2.7-0.2c-0.9,0.2-1.7,0.7-2.3,1.4c-0.6,0.7-1,1.5-1.2,2.5c-0.2,0.9-0.3,1.8,0.1,2.6c0.4,0.7,1.2,1.1,2.1,1.2
				c0.9,0,1.9-0.2,2.5-0.8c0.3-0.3,0.5-0.7,0.5-1.1c0-0.4-0.3-0.8-0.6-1.2l0.2,0.1l-0.3,0.1c-0.1,0-0.2,0.1-0.3,0.1
				c-0.1,0.1-0.2,0.1-0.3,0.2l-0.1,0.1c-0.1,0-0.1,0.1-0.1,0.1c0,0-0.1,0.1-0.1,0.1l0,0.2c0,0.1,0,0.2,0,0.4c0,0.3,0,0.5,0,0.8
				l-0.1,0c0-0.2-0.1-0.5-0.1-0.7c0-0.1-0.1-0.2-0.1-0.4l0-0.2c0-0.1,0-0.1,0-0.2c0-0.1,0-0.1,0.1-0.2l0.1-0.2
				c0.1-0.1,0.2-0.2,0.3-0.2c0.1-0.1,0.2-0.1,0.4-0.2l0.4-0.1l0.1,0l0.1,0.1c0.4,0.4,0.7,0.8,0.8,1.4c0.1,0.6-0.1,1.2-0.5,1.6
				c-0.8,0.8-1.9,1.1-2.9,1.2c-0.5,0-1.1-0.1-1.6-0.3c-0.5-0.2-1-0.7-1.2-1.2c-0.3-0.5-0.4-1.1-0.4-1.6c0-0.5,0.1-1.1,0.2-1.6
				c0.3-1,0.7-2,1.4-2.7c0.7-0.8,1.7-1.4,2.7-1.6c1-0.2,2.1,0,3.1,0.4c0.9,0.5,1.7,1.2,2.3,2c0.5,0.9,1,1.8,1.1,2.8
				c0.2,1,0.1,2-0.3,3c-0.3,1-0.9,1.8-1.6,2.6c-0.7,0.8-1.4,1.5-2.2,2.1c-1.6,1.3-3.3,2.2-5,3.3c-0.8,0.5-1.7,1-2.5,1.5
				C282.3,504.3,281.4,504.8,280.6,505.4L280.6,505.4z"/>
			<path class="st2" d="M277.2,507.7c0,0,0.2-0.3,0.6-0.8c0.4-0.5,0.8-1.2,1.4-2.2c0.5-1,1.1-2.2,1.5-3.7c0.4-1.5,0.8-3.2,0.8-5.1
				c0-1.9-0.4-3.9-1.3-5.8c-1-1.9-2.6-3.6-4.8-4.6c-2.1-1.1-4.7-1.4-7.2-0.8c-1.2,0.3-2.4,0.9-3.3,1.7c-0.9,0.9-1.6,2-1.9,3.2
				c-0.7,2.4-0.4,5.1,0.9,7.2c0.6,1,1.5,1.8,2.6,2.4c1.1,0.5,2.2,0.7,3.3,0.7c2.3,0,4.6-0.9,5.9-2.4c0.7-0.8,1-1.7,1.1-2.7
				c0-0.2,0-0.5,0-0.7c0-0.2-0.1-0.5-0.1-0.7c-0.1-0.5-0.3-0.9-0.5-1.2c-0.5-0.7-1.3-1.1-2.1-1.4c-0.8-0.2-1.6-0.4-2.4-0.3
				c-0.7,0-1.5,0.2-2,0.5c-0.5,0.4-0.9,0.9-1.1,1.3c-0.2,0.5-0.2,1-0.1,1.4c0.1,0.4,0.4,0.7,0.6,0.9c0.5,0.3,0.8,0.4,0.8,0.4l0,0.1
				c0,0-0.3,0-0.9-0.4c-0.2-0.2-0.6-0.5-0.7-0.9c-0.2-0.4-0.2-1,0-1.6c0.2-0.6,0.5-1.2,1.1-1.6c0.6-0.5,1.4-0.7,2.2-0.7
				c0.8-0.1,1.7,0,2.6,0.2c0.9,0.3,1.9,0.7,2.5,1.6c0.3,0.5,0.6,1,0.7,1.5c0.1,0.3,0.1,0.5,0.2,0.8c0,0.3,0,0.6,0,0.8
				c0,1.2-0.5,2.3-1.3,3.3c-1.6,1.9-4.1,2.8-6.7,2.8c-1.3,0-2.6-0.3-3.8-0.9c-1.2-0.6-2.2-1.6-2.9-2.8c-1.4-2.4-1.5-5.3-0.6-7.8
				c0.4-1.3,1.2-2.4,2.2-3.3c1-0.9,2.2-1.4,3.5-1.8c2.5-0.7,5.2-0.5,7.5,0.6c2.3,0.9,4.3,2.6,5.3,4.7c1.1,2,1.5,4.3,1.4,6.3
				c0,2-0.4,3.8-1,5.3c-0.5,1.5-1.2,2.8-1.8,3.7c-0.6,1-1.2,1.7-1.6,2.1C277.4,507.6,277.2,507.8,277.2,507.7L277.2,507.7z"/>
			<path class="st2" d="M294.7,511.5c0,0,0.1,0.1,0.2,0.4c0.1,0.2,0.2,0.6,0.5,1c0.3,0.4,0.6,0.9,1.1,1.3c0.1,0.1,0.2,0.3,0.4,0.4
				c0.1,0.1,0.3,0.2,0.4,0.3c0.3,0.2,0.6,0.4,1,0.6c0.7,0.4,1.6,0.6,2.5,0.6c0.9,0.1,1.9-0.1,2.8-0.5c1-0.4,1.7-1.2,2.1-2.2
				c0.5-1,0.4-2.2,0.3-3.3c-0.2-1-0.9-1.9-1.6-2.7c-0.8-0.7-1.7-1.3-2.6-1.4c-0.9-0.1-1.6,0.4-2.1,1.2c-0.2,0.3-0.4,0.7-0.5,1
				c0,0.3,0,0.6,0.2,0.9c0.4,0.5,1.2,0.8,1.8,0.9c0.6,0.1,1.2,0,1.2-0.4c0-0.4-0.3-0.7-0.4-0.9c-0.2-0.2-0.3-0.3-0.3-0.3l0.1-0.1
				c0,0,0.1,0.1,0.3,0.3c0.2,0.2,0.5,0.4,0.7,1.1c0.1,0.3-0.2,0.7-0.6,0.9c-0.3,0.1-0.7,0.2-1.1,0.2c-0.8,0-1.6-0.3-2.4-1
				c-0.4-0.4-0.6-1-0.6-1.6c0-0.6,0.3-1.1,0.6-1.6c0.3-0.4,0.7-0.9,1.2-1.2c0.5-0.3,1.2-0.5,1.8-0.4c1.3,0.2,2.3,0.9,3.1,1.8
				c0.4,0.5,0.8,0.9,1,1.5c0.3,0.5,0.5,1.2,0.5,1.8v0.9c0,0.3,0,0.6-0.1,0.9l-0.1,0.9c-0.1,0.3-0.2,0.5-0.3,0.8
				c-0.5,1-1.2,2-2.2,2.6c-1,0.6-2.1,0.9-3.1,0.9c-0.3,0-0.5,0-0.8-0.1c-0.3,0-0.5-0.1-0.7-0.1c-0.5-0.2-0.9-0.3-1.3-0.5
				c-0.4-0.2-0.8-0.4-1.1-0.7c-0.3-0.3-0.6-0.5-0.8-0.8c-0.5-0.6-0.7-1.2-1-1.6c-0.2-0.5-0.2-0.9-0.3-1.1
				C294.7,511.7,294.6,511.5,294.7,511.5L294.7,511.5z"/>
		</g>
		<g>
			<g>
				<path class="st2" d="M562.6,524.6c0,0,0-0.1,0.1-0.3c0-0.2,0-0.5-0.3-0.6c-0.3-0.1-0.8-0.1-1.2,0.1c-0.5,0.2-1,0.5-1.2,1.1
					c-0.2,0.6,0,1.3,0.5,1.9c0.5,0.6,1.2,1.2,2,1.2c0.2,0,0.5,0,0.7,0l0.3,0l0.3-0.1c0.4-0.1,0.8-0.4,1.1-0.8
					c0.3-0.4,0.5-0.8,0.6-1.3c0.1-0.5,0.2-1,0.1-1.6c-0.1-0.5-0.2-1.1-0.4-1.6c-0.1-0.3-0.2-0.5-0.4-0.7c-0.2-0.3-0.4-0.5-0.5-0.7
					c-0.8-0.9-1.8-1.6-3-2c-2.4-0.8-5.4-0.5-7.7,1.2c-1.1,0.8-2.1,2-2.5,3.4c-0.2,0.7-0.3,1.4-0.3,2.2c0,0.7,0.1,1.5,0.3,2.2
					c0.4,1.4,1.2,2.8,2.3,3.8c1.1,1,2.5,1.7,3.9,2.2c2.9,0.9,6,1.1,9,0.9c3-0.3,6-0.9,9-0.6c1.5,0.1,3,0.5,4.2,1.6
					c1.2,1,1.6,2.6,1.7,3.9l0,0.3l0,0.3l0,0.5c0,0.3-0.1,0.7-0.2,1.1c-0.3,0.7-0.6,1.3-1.2,1.7c-1,0.9-2.3,1.3-3.6,1.3
					c-1.2,0-2.4-0.4-3.3-1c-0.5-0.3-0.9-0.7-1.2-1.1c-0.3-0.4-0.6-0.9-0.7-1.4c-0.1-0.5-0.1-1,0-1.5c0.1-0.5,0.5-0.9,0.9-1.1
					c0.4-0.2,0.8-0.3,1.2-0.3c0.4,0,0.8,0.1,1.1,0.3c0.6,0.3,1.1,0.7,1.5,1.1c0.3,0.4,0.5,0.9,0.3,1.3c-0.1,0.2-0.3,0.3-0.4,0.3
					c-0.1,0.1-0.2,0.1-0.3,0.1c-0.2,0.1-0.3,0.1-0.3,0.1l0-0.1c0,0,0.1,0,0.3-0.1c0.1,0,0.2-0.1,0.3-0.1c0.1-0.1,0.2-0.2,0.3-0.3
					c0.2-0.3,0-0.7-0.3-1.1c-0.3-0.4-0.8-0.7-1.4-1c-0.3-0.1-0.6-0.2-1-0.2c-0.3,0-0.7,0.1-1,0.3c-0.6,0.4-0.9,1.3-0.6,2.1
					c0.1,0.4,0.3,0.8,0.6,1.2c0.3,0.3,0.7,0.7,1.1,0.9c0.8,0.5,1.9,0.9,3,0.8c1.1,0,2.2-0.4,3-1.2c0.4-0.4,0.7-0.9,0.9-1.4
					c0.1-0.3,0.2-0.5,0.2-0.8l0-0.5l0-0.2l0-0.2c0-1.3-0.5-2.5-1.4-3.4c-0.9-0.8-2.3-1.2-3.7-1.4c-2.8-0.3-5.8,0.3-8.8,0.5
					c-3.1,0.2-6.3-0.1-9.2-1.2c-1.5-0.5-2.9-1.3-4-2.4c-1.1-1.1-2-2.4-2.4-4c-0.2-0.7-0.3-1.5-0.3-2.3c0-0.8,0.1-1.5,0.3-2.3
					c0.4-1.5,1.4-2.7,2.6-3.6c2.4-1.8,5.5-2.3,8.2-1.5c2.6,0.8,4.7,3.2,4.8,5.7c0.1,0.6,0,1.2-0.1,1.8c-0.1,0.6-0.4,1.1-0.8,1.6
					c-0.7,1-2,1.2-2.9,1.1c-1.1-0.1-1.8-0.8-2.3-1.4c-0.5-0.7-0.7-1.6-0.5-2.3c0.3-0.7,1-1,1.5-1.2c0.5-0.1,1-0.2,1.4,0
					c0.2,0.1,0.3,0.3,0.3,0.4c0,0.1,0,0.3,0,0.4C562.7,524.5,562.7,524.6,562.6,524.6L562.6,524.6z"/>
				<path class="st2" d="M523.8,548.6c0,0,0.1-0.1,0.2-0.3c0.1-0.2,0.2-0.6,0.5-1c0.1-0.2,0.2-0.4,0.4-0.7c0.2-0.2,0.3-0.5,0.5-0.7
					c0.4-0.5,0.9-1.1,1.4-1.6c0.6-0.6,1.2-1.1,2-1.7c0.7-0.5,1.5-1.1,2.4-1.6c1.7-1,3.7-1.8,5.8-2.4c1-0.3,2.1-0.5,3.1-0.7
					c1-0.2,2.1-0.3,3.1-0.4c1-0.1,2-0.1,2.9-0.1c0.9,0.1,1.8,0,2.6,0.1c0.8,0.1,1.5,0.1,2.1,0.3c0.6,0.1,1.2,0.2,1.6,0.3
					c0.9,0.2,1.4,0.3,1.4,0.3s-0.5-0.1-1.4-0.2c-0.5-0.1-1-0.1-1.6-0.2c-0.6-0.1-1.4-0.1-2.1-0.1c-0.8-0.1-1.6,0-2.5,0
					c-0.9,0.1-1.8,0.1-2.8,0.2c-1,0.1-2,0.3-3,0.4c-1,0.2-2,0.4-3,0.7c-1,0.3-2,0.6-2.9,1c-0.9,0.4-1.9,0.8-2.7,1.2
					c-0.9,0.4-1.7,0.9-2.4,1.4c-0.7,0.5-1.4,1-2,1.5c-0.6,0.5-1.1,1-1.5,1.5c-0.2,0.2-0.4,0.5-0.6,0.7c-0.2,0.2-0.3,0.4-0.4,0.6
					c-0.3,0.4-0.4,0.7-0.6,0.9C523.9,548.5,523.8,548.6,523.8,548.6z"/>
				<path class="st2" d="M550.4,540.5c0,0,0.3,0.1,0.8,0.2c0.2,0.1,0.6,0.1,0.9,0.2c0.3,0.1,0.7,0.1,1.2,0.2c0.4,0.1,0.9,0,1.4,0.1
					c0.5,0,1-0.1,1.5-0.1c0.5-0.1,1.1-0.1,1.6-0.3c0.6-0.1,1.1-0.3,1.7-0.4c0.5-0.2,1.1-0.3,1.6-0.6c0.5-0.2,1-0.4,1.5-0.7
					c0.5-0.2,0.9-0.5,1.4-0.7c0.4-0.3,0.8-0.5,1.2-0.7c0.4-0.2,0.7-0.5,1-0.7c0.3-0.2,0.5-0.4,0.7-0.6c0.4-0.3,0.6-0.5,0.6-0.5
					s-0.2,0.2-0.5,0.6c-0.2,0.2-0.4,0.4-0.6,0.7c-0.2,0.3-0.5,0.5-0.9,0.8c-0.3,0.3-0.7,0.6-1.1,0.9c-0.4,0.3-0.9,0.6-1.4,0.9
					c-0.5,0.3-1,0.5-1.6,0.8c-0.5,0.2-1.1,0.4-1.7,0.6c-0.6,0.1-1.2,0.3-1.7,0.4c-0.6,0.1-1.2,0.2-1.7,0.2c-0.6,0-1.1,0-1.6,0
					c-0.5,0-1-0.1-1.4-0.2c-0.2,0-0.4-0.1-0.6-0.1c-0.2-0.1-0.4-0.1-0.6-0.2c-0.3-0.1-0.6-0.2-0.9-0.3
					C550.6,540.7,550.4,540.5,550.4,540.5z"/>
				<path class="st2" d="M572,542.6c0,0-0.1-0.1-0.2-0.2c-0.1-0.1-0.3-0.3-0.6-0.4c-0.5-0.3-1.4-0.4-2.4-0.2c-0.5,0.1-1,0.3-1.5,0.6
					c-0.5,0.3-1,0.7-1.3,1.2c-0.3,0.5-0.5,1.1-0.5,1.7c0,0.6,0.1,1.3,0.5,1.8c0.3,0.5,0.9,0.9,1.5,1c0.6,0.1,1.3,0.1,1.8-0.1
					c0.6-0.2,1-0.6,1.3-1c0.1-0.2,0.2-0.5,0.2-0.8l0-0.1c0,0,0-0.1,0,0l0-0.1l0-0.2c0-0.1,0-0.2-0.1-0.3c-0.4-0.9-1.4-1.3-1.9-1
					c-0.3,0.1-0.3,0.4-0.4,0.5c0,0.2,0,0.3,0,0.3s0-0.1,0-0.3c0-0.2,0-0.5,0.3-0.7c0.3-0.2,0.7-0.2,1.2-0.1c0.4,0.1,0.9,0.5,1.2,1
					c0.1,0.1,0.1,0.3,0.2,0.5l0,0.2l0,0.1c0,0.1,0,0.1,0,0.1l0,0.1c0,0.3-0.1,0.6-0.2,1c-0.3,0.6-0.8,1.2-1.5,1.5
					c-0.7,0.3-1.5,0.3-2.2,0.2c-0.8-0.1-1.5-0.6-2-1.3c-0.5-0.7-0.7-1.5-0.6-2.3c0-0.8,0.3-1.5,0.7-2.1c0.5-0.6,1-1,1.6-1.3
					c0.6-0.3,1.2-0.5,1.7-0.5c1.1-0.2,2.1,0.1,2.6,0.5c0.3,0.2,0.4,0.4,0.5,0.5C571.9,542.6,572,542.6,572,542.6z"/>
				<path class="st2" d="M551.2,531.5c0.8,0.8,0.7,2.1-0.1,2.9c-0.8,0.8-2.1,0.7-2.9-0.1c-0.8-0.8-0.7-2.1,0.1-2.9
					C549.2,530.6,550.5,530.7,551.2,531.5z"/>
				<path class="st2" d="M549,527.7c0.5,0.6,0.5,1.5-0.1,2c-0.6,0.5-1.5,0.5-2-0.1c-0.5-0.6-0.5-1.5,0.1-2
					C547.5,527.1,548.4,527.1,549,527.7z"/>
				<path class="st2" d="M549.1,523.9c0.5,0.5,0.4,1.3-0.1,1.7c-0.5,0.4-1.3,0.4-1.7-0.1c-0.5-0.5-0.4-1.3,0.1-1.7
					C547.9,523.4,548.7,523.4,549.1,523.9z"/>
			</g>
			<g>
				<path class="st2" d="M570.1,517.7c0,0-0.1,0-0.3,0.1c-0.2,0-0.5,0-0.6-0.3c-0.1-0.3,0-0.8,0.2-1.2c0.2-0.4,0.6-1,1.1-1.1
					c0.6-0.1,1.3,0.1,1.9,0.7c0.5,0.5,1,1.3,1,2.1c0,0.2,0,0.5-0.1,0.7l-0.1,0.3l-0.1,0.3c-0.2,0.4-0.5,0.8-0.9,1
					c-0.4,0.3-0.9,0.4-1.4,0.5c-0.5,0.1-1,0-1.6-0.1c-0.5-0.1-1.1-0.3-1.6-0.6c-0.2-0.1-0.5-0.3-0.7-0.5c-0.2-0.2-0.5-0.4-0.7-0.6
					c-0.8-0.8-1.5-1.9-1.8-3.2c-0.6-2.4-0.1-5.4,1.7-7.5c0.9-1,2.1-1.9,3.5-2.2c0.7-0.2,1.4-0.2,2.2-0.1c0.7,0.1,1.4,0.3,2.2,0.5
					c1.4,0.5,2.6,1.5,3.6,2.7c0.9,1.2,1.5,2.6,1.9,4.1c0.7,3,0.6,6,0.2,8.9c-0.5,2.9-1.4,5.8-1.3,8.8c0,1.5,0.3,3,1.2,4.3
					c0.9,1.3,2.4,1.9,3.8,2.1l0.3,0l0.3,0l0.5,0c0.3,0,0.7-0.1,1.1-0.1c0.7-0.2,1.3-0.5,1.8-1c1-0.9,1.5-2.2,1.6-3.4
					c0.1-1.2-0.2-2.4-0.7-3.4c-0.3-0.5-0.6-0.9-1-1.3c-0.4-0.4-0.9-0.6-1.3-0.8c-0.5-0.2-1-0.2-1.5-0.1c-0.5,0.1-0.9,0.4-1.1,0.7
					c-0.3,0.4-0.4,0.8-0.4,1.2c0,0.4,0.1,0.8,0.2,1.1c0.2,0.7,0.6,1.2,1,1.6c0.4,0.4,0.9,0.6,1.3,0.4c0.2-0.1,0.3-0.2,0.4-0.3
					c0.1-0.1,0.1-0.2,0.2-0.3c0.1-0.2,0.1-0.3,0.1-0.3l-0.1,0c0,0,0,0.1-0.1,0.2c0,0.1-0.1,0.2-0.2,0.3c-0.1,0.1-0.2,0.2-0.3,0.3
					c-0.3,0.1-0.7-0.1-1.1-0.4c-0.3-0.4-0.7-0.9-0.8-1.5c-0.1-0.3-0.1-0.6-0.1-1c0-0.3,0.2-0.7,0.4-1c0.4-0.6,1.3-0.7,2.1-0.4
					c0.4,0.2,0.8,0.4,1.1,0.7c0.3,0.3,0.6,0.7,0.8,1.2c0.5,0.9,0.7,1.9,0.6,3c-0.1,1.1-0.6,2.2-1.4,2.9c-0.4,0.4-0.9,0.6-1.5,0.8
					c-0.3,0-0.5,0.1-0.8,0.1l-0.5,0l-0.2,0l-0.2,0c-1.2-0.2-2.5-0.7-3.2-1.7c-0.8-1-1-2.4-1.1-3.8c-0.1-2.8,0.7-5.7,1.2-8.6
					c0.4-3,0.4-6.2-0.4-9.2c-0.4-1.5-1.1-3-2.1-4.2c-1-1.2-2.3-2.2-3.7-2.7c-0.7-0.2-1.4-0.5-2.2-0.6c-0.8-0.1-1.5-0.1-2.2,0.1
					c-1.5,0.3-2.8,1.1-3.8,2.2c-2,2.1-2.7,5.2-2.1,7.9c0.6,2.7,2.7,4.9,5.2,5.3c0.6,0.1,1.2,0.1,1.8,0.1c0.6-0.1,1.1-0.3,1.6-0.6
					c1-0.6,1.3-1.9,1.3-2.8c0-1.1-0.6-1.9-1.2-2.5c-0.6-0.6-1.5-0.9-2.2-0.7c-0.8,0.2-1.1,0.8-1.3,1.3c-0.2,0.5-0.3,1-0.1,1.4
					c0.1,0.2,0.2,0.3,0.4,0.4c0.1,0.1,0.3,0,0.4,0C570.1,517.8,570.2,517.8,570.1,517.7L570.1,517.7z"/>
				<path class="st2" d="M596.7,482c0,0-0.1,0-0.4,0.1c-0.2,0.1-0.6,0.2-1,0.4c-0.2,0.1-0.4,0.2-0.7,0.3c-0.2,0.1-0.5,0.3-0.8,0.4
					c-0.5,0.3-1.1,0.7-1.7,1.3c-0.6,0.5-1.2,1.1-1.8,1.8c-0.6,0.7-1.2,1.4-1.7,2.2c-1.1,1.6-2.1,3.5-2.8,5.4c-0.4,1-0.6,2-0.9,3
					c-0.2,1-0.5,2-0.6,3c-0.2,1-0.2,1.9-0.3,2.8c0,0.9-0.1,1.7-0.1,2.5c0,0.8,0,1.5,0.1,2.1c0.1,0.6,0.1,1.2,0.2,1.6
					c0.1,0.9,0.2,1.4,0.2,1.4s0-0.5-0.1-1.4c0-0.5,0-1,0-1.6c0-0.6,0-1.3,0.1-2.1c0-0.8,0.1-1.6,0.2-2.5c0.1-0.9,0.2-1.8,0.4-2.7
					c0.2-1,0.4-1.9,0.6-2.9c0.3-1,0.6-2,0.9-2.9c0.4-0.9,0.8-1.9,1.2-2.8c0.5-0.9,0.9-1.8,1.4-2.5c0.5-0.8,1-1.5,1.6-2.2
					c0.5-0.7,1.1-1.3,1.6-1.8c0.6-0.5,1.1-1,1.6-1.3c0.3-0.2,0.5-0.3,0.7-0.5c0.2-0.1,0.4-0.3,0.6-0.4c0.4-0.2,0.7-0.4,0.9-0.5
					C596.6,482.1,596.7,482,596.7,482z"/>
				<path class="st2" d="M586.8,507.3c0,0,0.1,0.3,0.2,0.8c0.1,0.2,0.1,0.6,0.1,0.9c0,0.3,0.1,0.7,0.1,1.2c0,0.4,0,0.9-0.1,1.4
					c0,0.5-0.1,1-0.2,1.5c-0.1,0.5-0.2,1-0.4,1.6c-0.1,0.5-0.4,1.1-0.5,1.6c-0.2,0.5-0.4,1-0.7,1.5c-0.2,0.5-0.5,1-0.8,1.4
					c-0.3,0.4-0.5,0.9-0.8,1.3c-0.3,0.4-0.5,0.8-0.8,1.1c-0.3,0.3-0.5,0.6-0.8,0.9c-0.2,0.3-0.4,0.5-0.6,0.7
					c-0.4,0.3-0.6,0.6-0.6,0.6s0.2-0.1,0.7-0.4c0.2-0.1,0.5-0.3,0.7-0.6c0.3-0.2,0.6-0.5,0.9-0.8c0.3-0.3,0.6-0.7,1-1
					c0.3-0.4,0.6-0.8,0.9-1.3c0.3-0.5,0.6-0.9,0.9-1.5c0.3-0.5,0.5-1.1,0.7-1.6c0.2-0.6,0.4-1.1,0.5-1.7c0.2-0.6,0.3-1.1,0.3-1.7
					c0.1-0.5,0.1-1.1,0.1-1.6c0-0.5,0-1-0.1-1.4c0-0.2-0.1-0.4-0.1-0.6c0-0.2-0.1-0.4-0.1-0.6c-0.1-0.4-0.2-0.7-0.3-0.9
					C586.9,507.6,586.8,507.3,586.8,507.3z"/>
				<path class="st2" d="M587.2,528.8c0,0-0.1-0.1-0.2-0.2c-0.1-0.1-0.2-0.3-0.3-0.6c-0.2-0.6-0.3-1.5,0-2.4c0.2-0.5,0.4-1,0.7-1.4
					c0.3-0.5,0.8-0.9,1.2-1.2c0.5-0.3,1.1-0.4,1.8-0.4c0.6,0,1.2,0.3,1.7,0.7c0.5,0.4,0.8,1,0.8,1.6c0.1,0.6,0,1.3-0.2,1.8
					c-0.2,0.5-0.6,0.9-1.1,1.1c-0.3,0.1-0.5,0.1-0.8,0.1h-0.1c0,0-0.1,0,0,0l0,0l-0.2,0c-0.1,0-0.2-0.1-0.3-0.1
					c-0.8-0.5-1.2-1.5-0.8-2c0.2-0.2,0.4-0.3,0.6-0.3c0.2,0,0.3,0,0.3,0s-0.1,0-0.3,0c-0.2,0-0.4,0-0.7,0.3
					c-0.2,0.3-0.3,0.7-0.2,1.2c0.1,0.5,0.4,1,0.9,1.3c0.1,0.1,0.3,0.2,0.4,0.2l0.2,0.1l0.1,0c0.1,0,0.1,0,0.1,0l0.1,0
					c0.3,0,0.6,0,1-0.1c0.7-0.2,1.3-0.7,1.6-1.4c0.3-0.7,0.4-1.4,0.3-2.2c-0.1-0.8-0.5-1.6-1.1-2.1c-0.6-0.5-1.4-0.8-2.2-0.8
					c-0.8,0-1.5,0.1-2.1,0.5c-0.7,0.4-1,0.9-1.4,1.5c-0.3,0.5-0.5,1.1-0.7,1.6c-0.3,1.1-0.1,2.1,0.2,2.6c0.1,0.3,0.3,0.5,0.4,0.6
					C587.1,528.7,587.2,528.8,587.2,528.8z"/>
				<path class="st2" d="M577.8,507.2c0.8,0.8,2,0.9,2.8,0.2c0.8-0.7,0.8-2,0.1-2.8c-0.8-0.8-2-0.9-2.8-0.2
					C577.1,505.2,577.1,506.4,577.8,507.2z"/>
				<path class="st2" d="M574.3,504.6c0.5,0.6,1.4,0.6,2,0.1c0.6-0.5,0.6-1.4,0.1-2c-0.5-0.6-1.4-0.6-2-0.1
					C573.8,503.1,573.7,504,574.3,504.6z"/>
				<path class="st2" d="M570.5,504.4c0.4,0.5,1.2,0.5,1.7,0.1c0.5-0.4,0.5-1.2,0.1-1.7c-0.5-0.5-1.2-0.5-1.7-0.1
					C570.1,503.1,570,503.9,570.5,504.4z"/>
			</g>
		</g>
		<g>
			<g>
				<rect x="591.7" y="381.6" class="st2" width="2" height="89.7"/>
			</g>
			<g>
				<rect x="595.8" y="372.8" class="st2" width="1" height="89.7"/>
			</g>
			<g>
				<rect x="588.6" y="382" class="st2" width="1" height="93.9"/>
			</g>
		</g>
		<g>
			<g>
				
					<rect x="477.5" y="498.6" transform="matrix(2.166343e-03 -1 1 2.166343e-03 -65.797 1020.533)" class="st2" width="2" height="89.2"/>
			</g>
			<g>
				
					<rect x="469.2" y="495" transform="matrix(2.167488e-03 -1 1 2.167488e-03 -70.9928 1008.1207)" class="st2" width="1" height="89.2"/>
			</g>
			<g>
				
					<rect x="480.4" y="500.1" transform="matrix(2.174571e-03 -1 1 2.174571e-03 -66.9912 1026.5114)" class="st2" width="1" height="93.4"/>
			</g>
		</g>
		<g>
			<path class="st2" d="M350.3,453.1c0.7,0.1,1.4,0.2,2,0.4c-3.9,0.6-3.7,3.9-1.9,3.5c-1.6-1.6,1-4.2,3.7-2.9c3.5,1.7,6.8,4.3,9,7.7
				c-0.8-0.9-2.3-0.3-1.8,1c1.2-2,3.2,1.6,4.9,2.9c2.2,1.8,5.2,3.5,8,4c-2.7-0.6-5.1,1.4-3.5,2.9c0-2.8,4.7-2.5,6.9-2.6
				c4.8,0,9.8-2.4,13.3-6.1c11.5-12.1,16.8-19,25.8-18.5c5.2,0.3,7.3,6.7,4.9,9.4c-0.9,1-2.9,0.6-2.8-1c0.1-1.2,1-1.7,2-2
				c-1.8-0.9-3.9-0.5-4.6,1.4c-0.9,2.8,2.6,5.2,5.1,4.3c1.1-0.4,4.5-2.3,3.1-7.3c-1-3.4-1.6-6.3,1.5-7.7v-0.5
				c-7.1,1.6,1.3,9.7-3.3,13.9c-2.4,2.1-6,0.5-5.2-2.3c0.3-1,1-1.8,2.1-1.7c-1.8,0.6-2.2,3.3-0.2,3.9c4.7,1.4,6.5-9.4-2-10.8
				c-3.2-0.6-7.3,0.8-10.3,2c-0.8,0.3-5.8,1.4-4.4-1.3c-1.8,0.3-1.1,2.8,2.2,2.3c-2.9,1.4-5.9,3-9.1,2.7c-3.6-0.3-4.2-3.1-3.4-4.2
				c0.5-0.6,1.4-0.7,2.6,0.3c0.6-2-0.9-2.1-2.7-0.7c-2,1.6-2.7,4.4,3.5,5c5.2,0.5,10.1-3.7,15.5-5.2c-6.4,2.1-13.1,8.7-22,18
				c-7.5,7.9-17.2,6.2-22.4,1.4c-2.6-2.3-4-5.7-3.3-8.9c0.5-2.3,1.3-4.3,2.9-5.5c1.6-1.2,3.1-0.4,3.3,1.7c1.6-1.6-1.8-6.7-5.4,0.1
				c1.2-3.3,3.4-6.7,6.5-7.8c2.1-0.8,4-0.8,5.6-0.2c1.7,0.6,3.2,2,4.5,4.2c0.8-3.4-3.8-4.7-6.6-5.3c4.8-0.3,11,2.8,12.5,7.7
				c-0.7,0.3-1.5,0.7-2,1.2c-1.7-3.3-4.1-3.2-6.3-0.4c-1.4-1.1-4.6-3.9-6.8,0.6c2.1-0.7,3.5-3.3,6.5-0.3c-1.5,2-2.6,7.4,0,8.3
				c3.8,1.4,2.8-5.5,0.6-8.3c1.8-2.1,4.4-2.5,5.8,0.2c-1.3,0.9-2.2,3-1.1,4.8c2-0.2,2.7-2.5,1.4-4.8c0.5-0.5,1.3-0.8,2-1.1
				c1.7,6.9-4.2,11-5.8,11.4c-7.8,1.9-8.2-4.7-13.9-5.1c0,0.1,3.9,3.5,7.7,5.3c1.9,0.9,3.8,0.7,4.9,0.7c-4,1.5-7-1.3-10.6-0.4
				c2.8,1.9,5.4,1.7,8.2,1.4c4-0.4,7.9-2.2,9.6-6.7c5.2,8.3,10.6-9.3,0.1-7c-0.6-2-1.9-3.8-3.6-5c2.8,1,6.3,1.8,6.1-2.5
				c-2.8,4.7-7.6,0.2-10.9-0.7c-1.6-0.5-5.7-0.8-8.5,0.6c-4.8,2.5-7,9.2-7.4,14.5c-0.2-1.2-0.6-10.8-6.5-9.9
				c2.5,2.1,6.3,6.4,6.3,11.2c-3.5-3.5-8.2-6.7-12.7-7.5c-5.5-0.9-8.5,4.2-3.4,7.8C346.2,460.3,341.9,452.4,350.3,453.1L350.3,453.1
				z M410.5,462.9c-2.6-0.8-1.5-4.7,1-4.6c-0.8-0.8-2.2-0.4-3.2,0.9c-0.9,1.1-0.7,4,1.4,4.6c1.7,0.5,2.6-0.1,3.3-0.8
				c1.2-1.2,1.7-3,4.2-2.9c0.6,0,1.2,0.2,1.7,0.4c0.5,1.2,0.4,2.4-0.1,3.5c-1.9,4.4-8.8,5.3-12.2,0.6c-2.5-3.5-2.9-9.6,0.2-13.1
				c2.4-2.7,7.2-4.8,10.6-3.6c-5.6-0.3-9,5.3-6,7.9c1.1,0.9,2.9,0.3,2.8-0.8c-2,2.6-4.5-1.5-2.2-4.5c1.1-1.4,2.8-2.3,4.6-2.2
				c-4,1.2-2.1,4.4-0.8,3.3c-1.6-0.1-0.8-3,1.5-3.1c2.9-0.1,4.3,2.8,3,5.3c2.2-0.6,1.5-4.6-2.7-6.1c-1.8-0.7-4.6-0.8-7.7,0.6
				c-4.4,1.9-6.3,4.4-7.9,7.5c-2.8,5.5-2.4,12.2-4,14.9c-0.6,1.1-2,2-3.1,1.9c-0.9-0.1-1.8-0.9-2.1-1.9c-1.3,0.8,1.1,3.8,4.5,1.4
				c-0.6,1.2-2.1,2.2-3.3,2.5c-2.5,0.5-4.7-1.1-4.6-3.6c0-0.7,0.1-1.6,0.6-2.2c-1.4-0.1-2.3,1.3-2.2,2.9c0.2,2.2,2.4,4.6,6.2,3.6
				c7.7-2.1,4.6-12.9,9.7-20.4c-2.4,4.5-3.6,10.7-2.6,14.8c1.6,6.2,7.3,9.6,14.5,9.6c1,0,1.8,0.4,2,1.4c0.6-0.8-0.4-1.6-0.6-1.5
				c1.6-0.2,3.1-0.9,4.5-1.7c1.9,1.2,2.2,3.4,1.3,5.5c1.8-0.7,2.2-3.9-1.1-5.7c1.3-0.6,2.7-1.3,3.8-3.3v-2.1c-0.6,2.4-2.6,4.4-4,5.3
				c-2.6-1.5-6.9-1.7-10.2-3c10.2,0.9,15.2-10.2,7.9-14c-0.3-0.3-0.8-3-3.9-3c-2.1,0-3.5,2.7-2.9,4c0.5-3.5,4.6-4.2,6.2-1.2
				C413.1,457.9,414.2,464.1,410.5,462.9L410.5,462.9z M405.2,453.8c-2.5,6.2,0.5,15.6,8.2,14.9c3.4-0.3,7.4-4,6.3-7.9
				c4.7,3.1,2,13.2-7.2,13c-4-0.1-6.8-2.8-8.2-6.6c-1.2-3.4-1.3-8.9,0.3-12.2l0,0C404.7,454.5,404.9,454.1,405.2,453.8L405.2,453.8z
				 M425.7,478.5c-0.2-0.5-0.5-1-1-1.4c0.4-0.3,0.7-0.6,1-1v-0.8c-0.3,1-1.7,1.7-2.5,1.8c1.2,0.2,2.3,1.6,2.5,2.5V478.5L425.7,478.5
				z M425.7,459.8c-0.8-0.5-1-1.9-0.7-3.4c-0.5,0.9-0.9,1.7-1.8,2.1c0.3-1.5,1.2-3,2.5-4.5v-3c0-0.4-0.1-0.6-0.1-0.8
				c-0.3-1.9-1.1-3.2-0.5-4.7c0.1-0.4,0.4-0.7,0.6-1v-0.8c-2.8,1.6-1,4.4-0.5,6.5c0.3,1.1,0.4,2.3,0.3,3.5c0,0-2.5,2.3-3,5.4
				c0.8-0.1,1.5-0.4,2-1c0,1.3,0.6,2.3,1.2,2.8V459.8L425.7,459.8z M415.7,478.7c-11.4-0.3-17-12.3-12-23c-1.2,3.3-1.6,9.6-0.4,12.7
				c2.2,5.9,8.6,6.5,13.7,7.5c1.8,0.4,3.1,0.5,4.5,1.2C419.8,478.2,417.7,478.7,415.7,478.7L415.7,478.7z M378.3,452.9
				c2.4,3.1,1.2,8.2-0.8,6.6C375.8,458.3,377,454.2,378.3,452.9L378.3,452.9z M384.4,453c0.9,2,0.3,3.1-1.2,4.2
				C382.7,455.8,383.5,453.9,384.4,453L384.4,453z M386.8,451.6c9.1-2,5.4,12.4,0,6.1C387.5,455.9,387.3,453.6,386.8,451.6
				L386.8,451.6z"/>
			<path class="st2" d="M501.1,453.1c-0.7,0.1-1.4,0.2-2,0.4c3.9,0.6,3.7,3.9,1.9,3.5c1.6-1.6-1-4.2-3.7-2.9c-3.5,1.7-6.8,4.3-9,7.7
				c0.8-0.9,2.3-0.3,1.8,1c-1.2-2-3.2,1.6-4.9,2.9c-2.2,1.8-5.2,3.5-8,4c2.7-0.6,5.1,1.4,3.5,2.9c0-2.8-4.7-2.5-6.9-2.6
				c-4.8,0-9.8-2.4-13.3-6.1c-11.5-12.1-16.8-19-25.8-18.5c-5.2,0.3-7.3,6.7-4.9,9.4c0.9,1,2.9,0.6,2.8-1c-0.1-1.2-1-1.7-2-2
				c1.8-0.9,3.9-0.5,4.6,1.4c0.9,2.8-2.6,5.2-5.1,4.3c-1.1-0.4-4.5-2.3-3.1-7.3c1-3.4,1.6-6.3-1.5-7.7v-0.5
				c7.1,1.6-1.3,9.7,3.3,13.9c2.4,2.1,6,0.5,5.2-2.3c-0.3-1-1-1.8-2.1-1.7c1.8,0.6,2.2,3.3,0.2,3.9c-4.7,1.4-6.5-9.4,2-10.8
				c3.2-0.6,7.3,0.8,10.3,2c0.8,0.3,5.8,1.4,4.4-1.3c1.8,0.3,1.1,2.8-2.2,2.3c2.9,1.4,5.9,3,9.1,2.7c3.6-0.3,4.2-3.1,3.4-4.2
				c-0.5-0.6-1.4-0.7-2.6,0.3c-0.6-2,0.9-2.1,2.7-0.7c2,1.6,2.7,4.4-3.5,5c-5.2,0.5-10.1-3.7-15.5-5.2c6.4,2.1,13.1,8.7,22,18
				c7.5,7.9,17.2,6.2,22.4,1.4c2.6-2.3,4-5.7,3.3-8.9c-0.5-2.3-1.3-4.3-2.9-5.5c-1.6-1.2-3.1-0.4-3.3,1.7c-1.6-1.6,1.8-6.7,5.4,0.1
				c-1.2-3.3-3.4-6.7-6.5-7.8c-2.1-0.8-4-0.8-5.6-0.2c-1.7,0.6-3.2,2-4.5,4.2c-0.8-3.4,3.8-4.7,6.6-5.3c-4.8-0.3-11,2.8-12.5,7.7
				c0.7,0.3,1.5,0.7,2,1.2c1.7-3.3,4.1-3.2,6.3-0.4c1.4-1.1,4.6-3.9,6.8,0.6c-2.1-0.7-3.5-3.3-6.5-0.3c1.5,2,2.6,7.4,0,8.3
				c-3.8,1.4-2.8-5.5-0.6-8.3c-1.8-2.1-4.4-2.5-5.8,0.2c1.3,0.9,2.2,3,1.1,4.8c-2-0.2-2.7-2.5-1.4-4.8c-0.5-0.5-1.3-0.8-2-1.1
				c-1.7,6.9,4.2,11,5.8,11.4c7.8,1.9,8.2-4.7,13.9-5.1c0,0.1-3.9,3.5-7.7,5.3c-1.9,0.9-3.8,0.7-4.9,0.7c4,1.5,7-1.3,10.6-0.4
				c-2.8,1.9-5.4,1.7-8.2,1.4c-4-0.4-7.9-2.2-9.6-6.7c-5.2,8.3-10.6-9.3-0.1-7c0.6-2,1.9-3.8,3.6-5c-2.8,1-6.3,1.8-6.1-2.5
				c2.8,4.7,7.6,0.2,10.9-0.7c1.6-0.5,5.7-0.8,8.5,0.6c4.8,2.5,7,9.2,7.4,14.5c0.2-1.2,0.6-10.8,6.5-9.9c-2.5,2.1-6.3,6.4-6.3,11.2
				c3.5-3.5,8.2-6.7,12.7-7.5c5.5-0.9,8.5,4.2,3.4,7.8C505.3,460.3,509.5,452.4,501.1,453.1L501.1,453.1z M441,462.9
				c2.6-0.8,1.5-4.7-1-4.6c0.8-0.8,2.2-0.4,3.1,0.9c0.9,1.1,0.7,4-1.4,4.6c-1.7,0.5-2.6-0.1-3.3-0.8c-1.2-1.2-1.7-3-4.2-2.9
				c-0.6,0-1.2,0.2-1.7,0.4c-0.5,1.2-0.4,2.4,0.1,3.5c1.9,4.4,8.8,5.3,12.2,0.6c2.5-3.5,2.9-9.6-0.2-13.1c-2.4-2.7-7.2-4.8-10.6-3.6
				c5.6-0.3,9,5.3,6,7.9c-1.1,0.9-2.9,0.3-2.8-0.8c2,2.6,4.5-1.5,2.2-4.5c-1.1-1.4-2.8-2.3-4.6-2.2c4,1.2,2.1,4.4,0.8,3.3
				c1.6-0.1,0.8-3-1.5-3.1c-2.9-0.1-4.3,2.8-3,5.3c-2.2-0.6-1.5-4.6,2.7-6.1c1.8-0.7,4.6-0.8,7.7,0.6c4.4,1.9,6.3,4.4,7.9,7.5
				c2.8,5.5,2.4,12.2,4,14.9c0.6,1.1,2,2,3.1,1.9c0.9-0.1,1.8-0.9,2.1-1.9c1.3,0.8-1.1,3.8-4.5,1.4c0.6,1.2,2.1,2.2,3.3,2.5
				c2.5,0.5,4.7-1.1,4.6-3.6c0-0.7-0.1-1.6-0.6-2.2c1.4-0.1,2.3,1.3,2.2,2.9c-0.2,2.2-2.4,4.6-6.2,3.6c-7.7-2.1-4.6-12.9-9.7-20.4
				c2.4,4.5,3.6,10.7,2.6,14.8c-1.6,6.2-7.3,9.6-14.5,9.6c-1,0-1.8,0.4-2,1.4c-0.6-0.8,0.4-1.6,0.6-1.5c-1.6-0.2-3.1-0.9-4.5-1.7
				c-1.9,1.2-2.2,3.4-1.3,5.5c-1.8-0.7-2.2-3.9,1.1-5.7c-1.3-0.6-2.7-1.3-3.8-3.3v-2.1c0.6,2.4,2.6,4.4,4,5.3
				c2.6-1.5,6.9-1.7,10.2-3c-10.2,0.9-15.2-10.2-7.9-14c0.3-0.3,0.8-3,3.9-3c2.1,0,3.5,2.7,2.9,4c-0.5-3.5-4.6-4.2-6.2-1.2
				C438.3,457.9,437.3,464.1,441,462.9L441,462.9z M446.3,453.8c2.5,6.2-0.5,15.6-8.2,14.9c-3.4-0.3-7.4-4-6.3-7.9
				c-4.7,3.1-2,13.2,7.2,13c4-0.1,6.8-2.8,8.2-6.6c1.2-3.4,1.3-8.9-0.3-12.2h0C446.7,454.5,446.5,454.1,446.3,453.8L446.3,453.8z
				 M425.7,478.5c0.2-0.5,0.5-1,1-1.4c-0.4-0.3-0.7-0.6-1-1v-0.8c0.3,1,1.7,1.7,2.5,1.8c-1.2,0.2-2.3,1.6-2.5,2.5V478.5L425.7,478.5
				z M425.7,459.8c0.8-0.5,1-1.9,0.7-3.4c0.5,0.9,0.9,1.7,1.8,2.1c-0.3-1.5-1.2-3-2.5-4.5v-3c0-0.4,0.1-0.6,0.1-0.8
				c0.3-1.9,1.1-3.2,0.5-4.7c-0.1-0.4-0.4-0.7-0.6-1v-0.8c2.8,1.6,1,4.4,0.5,6.5c-0.3,1.1-0.4,2.3-0.3,3.5c0,0,2.5,2.3,3,5.4
				c-0.8-0.1-1.5-0.4-2-1c0,1.3-0.6,2.3-1.2,2.8V459.8L425.7,459.8z M435.7,478.7c11.4-0.3,17-12.3,12-23c1.2,3.3,1.6,9.6,0.4,12.7
				c-2.2,5.9-8.6,6.5-13.7,7.5c-1.8,0.4-3.1,0.5-4.5,1.2C431.7,478.2,433.8,478.7,435.7,478.7L435.7,478.7z M473.2,452.9
				c-2.4,3.1-1.2,8.2,0.8,6.6C475.6,458.3,474.4,454.2,473.2,452.9L473.2,452.9z M467.1,453c-0.9,2-0.3,3.1,1.2,4.2
				C468.8,455.8,468,453.9,467.1,453L467.1,453z M464.7,451.6c-9.1-2-5.4,12.4,0,6.1C464,455.9,464.2,453.6,464.7,451.6L464.7,451.6
				z"/>
		</g>
		<path class="st2" d="M287.3,443.8c1.3,0,2.3-0.9,2.6-2l267.7,0c0.3,1.2,1.4,2,2.6,2c1.5,0,2.7-1.2,2.7-2.7c0-1.5-1.2-2.7-2.7-2.7
			c-1.3,0-2.3,0.9-2.6,2H290c-0.3-1.2-1.4-2-2.6-2c-1.5,0-2.7,1.2-2.7,2.7C284.6,442.6,285.9,443.8,287.3,443.8z"/>
		<path class="st2" d="M483.5,293.4c-1.4,0-3.2-0.1-4.5-0.7c-1.1-0.5-1.8-1.4-3.1-1c0.1,0.2,0,0.4,0.1,0.6c-2.6-3.9-5.9,1.6-8.6,1.4
			c-1.2-0.1-2.6-0.6-3.5-1.4c-1-0.8-2.3-3.2-2-0.4c-0.9-0.9-1.3-6.4-3.2-6.1c0,0.1,0,0.1,0,0.2c-0.1-0.9-1-0.8-1.5-1.6
			c-0.5-0.8,0-1.9,0.9-1.2c0-2.8-4.1-0.2-4.8,1.1c-0.7,1.3-1.2,4.1-0.1,5.3c-0.1,0-0.1-0.1-0.3-0.1c-0.1,1.3,1.3,3.1,2.6,3.2
			c-1.1,0-1.9-1.1-2.8-1.7c-0.5-0.3-2.8-1.4-2.2,0c-1.3-2.3-5.9,1.3-7.4,1.9c-2.8,1-5.8,0.8-8.6,0.6c-1.3-0.1-10.8-1.9-10.2,0.3
			c-0.4-0.3-0.6-0.2-0.7,0c-0.1-0.2-0.4-0.3-0.7,0c0.6-2.3-9-0.4-10.2-0.3c-2.9,0.2-5.9,0.4-8.6-0.6c-1.5-0.5-6.1-4.2-7.4-1.9
			c0.7-1.4-1.7-0.3-2.2,0c-0.8,0.6-1.7,1.7-2.8,1.7c1.3-0.1,2.8-1.9,2.6-3.2c-0.1,0.1-0.2,0.1-0.3,0.1c1.1-1.3,0.6-4.1-0.1-5.3
			c-0.7-1.3-4.8-3.9-4.8-1.1c0.9-0.7,1.4,0.4,0.9,1.2c-0.5,0.8-1.3,0.7-1.5,1.6c0-0.1,0-0.2,0-0.2c-1.8-0.4-2.3,5.2-3.2,6.1
			c0.4-2.8-1-0.4-2,0.4c-0.9,0.8-2.3,1.3-3.5,1.4c-2.7,0.1-5.9-5.3-8.6-1.4c0.1-0.2,0.1-0.4,0.1-0.6c-1.3-0.5-2,0.4-3.1,1
			c-1.3,0.6-3.1,0.7-4.5,0.7c-2.8,0-6.2-2.1-7.9,0.6v1.1c1.8,2.7,5.2,0.7,7.9,0.6c1.4,0,3.2,0.1,4.5,0.7c1.1,0.5,1.8,1.4,3.1,1
			c-0.1-0.2,0-0.4-0.1-0.6c2.6,3.8,5.9-1.6,8.6-1.4c1.2,0.1,2.6,0.6,3.5,1.4c1,0.8,2.3,3.2,2,0.4c0.9,0.9,1.3,6.4,3.2,6.1
			c0-0.1,0-0.1,0-0.2c0.1,0.9,1,0.8,1.5,1.6c0.5,0.8,0,1.9-0.9,1.2c0,2.8,4.1,0.2,4.8-1.1c0.7-1.3,1.2-4,0.1-5.3
			c0.1,0,0.1,0.1,0.3,0.1c0.2-1.3-1.3-3.1-2.6-3.2c1.1,0.1,1.9,1.1,2.8,1.7c0.5,0.3,2.9,1.4,2.2,0c1.3,2.3,5.9-1.3,7.4-1.9
			c2.8-1,5.8-0.8,8.6-0.7c1.3,0.1,10.8,1.9,10.2-0.3c0.4,0.3,0.6,0.2,0.7,0c0.1,0.2,0.4,0.3,0.7,0c-0.6,2.3,9,0.4,10.2,0.3
			c2.9-0.2,5.9-0.4,8.6,0.7c1.5,0.5,6.1,4.2,7.4,1.9c-0.7,1.4,1.7,0.3,2.2,0c0.9-0.6,1.7-1.7,2.8-1.7c-1.3,0.1-2.8,1.9-2.6,3.2
			c0.1-0.1,0.2-0.1,0.3-0.1c-1.1,1.3-0.6,4.1,0.1,5.3c0.7,1.3,4.8,3.9,4.8,1.1c-0.9,0.7-1.4-0.4-0.9-1.2c0.5-0.8,1.3-0.7,1.5-1.6
			c0,0.1,0,0.2,0,0.2c1.9,0.4,2.3-5.1,3.2-6.1c-0.3,2.8,1,0.4,2-0.4c0.9-0.8,2.3-1.3,3.5-1.4c2.7-0.1,5.9,5.3,8.6,1.4
			c-0.1,0.2-0.1,0.4-0.1,0.6c1.3,0.5,2-0.5,3.1-1c1.3-0.6,3.1-0.7,4.5-0.7c2.8,0,6.2,2.1,7.9-0.6V294
			C489.7,291.4,486.3,293.4,483.5,293.4z"/>
		<path class="st2" d="M491.4,363.4c-2-0.1-3.9-0.7-5.8-1.3c-2.3-0.8-5.6-2.2-7.7-0.2c0.7-1.5-2.6-0.5-3.1-0.3c-1.6,0.5-3.3,1-5,1.2
			c-2.1,0.1-4.2-0.4-6.2-1.1c-1.9-0.7-4.2-1.8-6-0.3c0.6-1.8-3.7,0.2-4.2,0.6c0.5-0.6,0.1-1-0.5-1c-0.6-0.1-0.9,0.5-1.3,0.9
			c-0.9,0.7-1.7,0.9-2.9,0.9c-1.3,0.1-5.7-2-6.3-0.4c0.3-1.3-1.2-0.9-1.6-0.1c0.5-1.5-2.2-0.2-2.6,0c-1.5,0.6-3.2,0.7-4.6,0.1
			c-2.6-1-7.1-4.1-8.2,0.3c0-1.5-1.2-0.7-1.4,0.5c-0.2-1.1-1.5-2-1.4-0.5c-1.1-4.4-5.6-1.3-8.2-0.3c-1.5,0.6-3.2,0.4-4.6-0.1
			c-0.5-0.2-3.2-1.4-2.6,0c-0.4-0.7-1.9-1.1-1.6,0.1c-0.6-1.6-5,0.5-6.3,0.4c-1.1-0.1-2-0.2-2.9-0.9c-0.4-0.4-0.7-0.9-1.3-0.9
			c-0.6,0.1-1,0.5-0.5,1c-0.5-0.4-4.8-2.4-4.2-0.6c-1.8-1.5-4.1-0.3-6,0.3c-2,0.7-4,1.2-6.2,1.1c-1.7-0.1-3.4-0.7-5-1.2
			c-0.5-0.2-3.8-1.2-3.1,0.3c-2.2-1.9-5.4-0.5-7.7,0.2c-1.9,0.6-3.8,1.2-5.8,1.3v0l0.6,0h-0.6v0c2,0.1,3.9,0.7,5.8,1.3
			c2.3,0.8,5.6,2.2,7.7,0.2c-0.7,1.5,2.6,0.5,3.1,0.3c1.6-0.5,3.3-1,5-1.2c2.1-0.1,4.2,0.4,6.2,1.1c1.9,0.7,4.2,1.8,6,0.3
			c-0.6,1.8,3.7-0.2,4.2-0.6c-0.5,0.6-0.1,1,0.5,1c0.6,0.1,0.9-0.5,1.3-0.9c0.9-0.7,1.7-0.9,2.9-0.9c1.3-0.1,5.7,2,6.3,0.4
			c-0.3,1.3,1.2,0.9,1.6,0.1c-0.5,1.5,2.2,0.2,2.6,0c1.5-0.5,3.2-0.7,4.6-0.1c2.6,1,7.1,4.1,8.2-0.3c0,1.5,1.2,0.7,1.4-0.5
			c0.2,1.1,1.5,2,1.4,0.5c1.1,4.4,5.6,1.3,8.2,0.3c1.5-0.6,3.2-0.4,4.6,0.1c0.5,0.2,3.2,1.5,2.6,0c0.4,0.7,1.9,1.1,1.6-0.1
			c0.6,1.6,5-0.5,6.3-0.4c1.1,0.1,2,0.2,2.9,0.9c0.4,0.3,0.7,0.9,1.3,0.9c0.6-0.1,1-0.5,0.5-1c0.5,0.3,4.8,2.4,4.2,0.6
			c1.8,1.5,4.1,0.3,6-0.3c2-0.7,4-1.2,6.2-1.1c1.7,0.1,3.4,0.7,5,1.2c0.5,0.2,3.8,1.2,3.1-0.3c2.2,1.9,5.4,0.5,7.7-0.2
			C487.5,364.1,489.4,363.6,491.4,363.4L491.4,363.4l-0.6,0L491.4,363.4L491.4,363.4z M423.8,363.4L423.8,363.4L423.8,363.4
			C423.8,363.4,423.8,363.4,423.8,363.4C423.8,363.4,423.8,363.4,423.8,363.4z"/>
		<g>
			<path class="st3" d="M408,119.8c-7.4,2.6-13.1-2.1-14-7.6c-0.5-2.8,1.4-4.9,4.6-5.4c3.1-0.5,5.8,1,6.4,3.6c0,0,0,0,0,0
				c-0.6-2.7-3.7-4.5-6.9-4c-3.4,0.6-5.7,3.4-5.3,6.3c1,5.8,7.2,9.7,14,8.6c6.8-1.1,14.4-12.3,25.2-16.2
				C417.5,110.8,415.4,117.2,408,119.8z"/>
			<path class="st3" d="M400.7,125.5c22.6,7.5,28-20.6,50.7-18.8C425.8,104.6,422.9,130.5,400.7,125.5z"/>
			<path class="st3" d="M404.3,107.2c-1.3,0.2-2.3,1.4-2.1,2.7c0.2,1.3,1.5,2.1,2.8,1.9c1.3-0.2,2.3-1.4,2.1-2.7
				C406.9,107.8,405.6,106.9,404.3,107.2z"/>
			<path class="st3" d="M397.9,122.8c22.6,7.5,28-20.6,50.7-18.8C423,101.9,420.1,127.8,397.9,122.8z"/>
			<path class="st3" d="M442.1,111.3c7.4-2.6,13.1,2.1,14,7.6c0.5,2.8-1.4,4.9-4.6,5.4c-3.1,0.5-5.8-1-6.4-3.6c0,0,0,0,0,0
				c0.6,2.8,3.7,4.5,6.9,4c3.4-0.6,5.7-3.4,5.3-6.3c-1-5.8-7.2-9.7-14-8.6c-6.8,1.1-14.4,12.3-25.2,16.2
				C432.5,120.3,434.7,114,442.1,111.3z"/>
			<path class="st3" d="M445.8,124c1.3-0.2,2.3-1.4,2.1-2.7c-0.2-1.3-1.5-2.1-2.8-1.9c-1.3,0.2-2.3,1.4-2.1,2.7
				C443.2,123.3,444.4,124.2,445.8,124z"/>
			<path class="st3" d="M441.2,119.4c0.7-0.1,1.1-0.7,1-1.3c-0.1-0.6-0.7-1-1.4-0.9c-0.7,0.1-1.1,0.7-1,1.3
				C439.9,119.1,440.5,119.5,441.2,119.4z"/>
			<path class="st3" d="M409.4,113.7c0.7-0.1,1.1-0.7,1-1.3c-0.1-0.6-0.7-1-1.4-0.9c-0.7,0.1-1.1,0.7-1,1.3
				C408.2,113.4,408.8,113.8,409.4,113.7z"/>
		</g>
		<g>
			<path class="st3" d="M391.8,497.4c16-5.3,19.8,14.5,35.7,13.2C409.4,512.1,407.4,493.9,391.8,497.4z"/>
			<path class="st3" d="M392.5,514.2c4.1,0,7.5-3.4,7.2-6.8c-0.2-2.8-2.4-3.5-4.4-3.6c-1.8-0.1-3.5,1.2-4.3,2.5
				c0.6-0.6,1.6-0.9,2.5-0.7c1.6,0.3,2.8,1.7,2.5,3.3c-0.3,1.5-1.8,2.6-3.4,2.3c-1.6-0.3-2.6-1.7-2.6-3.3c0-2.6,2.8-4.6,5.1-4.8
				c2.3-0.2,5.5,1.4,5.5,4.4c-0.1,4.3-3.7,7.3-8.1,7.3c-4.4,0-8.1-3.1-7.9-7c0.2-4.7,4.4-9,10.5-9.3c6.1-0.4,10.1,2.9,10.5,8.3
				c0,0,0,0,0,0c-0.4-4.2-4.6-7.4-9.8-7.4c-5.4,0-10.4,4.4-10.4,8.9C385.5,511.6,388.4,514.2,392.5,514.2z"/>
			<path class="st3" d="M419.8,506.7c5.5,2.1,10.3-1.9,9.9-5.4c-0.3-2.4-1.9-3.2-3.8-3.2c-1.9,0-1.3,1.5-3.6,2.3
				c-0.9-1.6,1.3-3.5,4.5-3.3c2.8,0.2,3.7,2.6,3.7,4.4c0,4.1-4.5,7.2-9.9,6c-5.3-1.2-10.2-8.7-17.8-11.4
				C413,500.4,414.3,504.5,419.8,506.7z"/>
			<path class="st3" d="M423.7,501.4c-1-0.2-1.7-1.1-1.5-2c0.2-0.9,1.1-1.6,2.1-1.4c1,0.2,1.7,1.1,1.5,2
				C425.6,500.9,424.7,501.6,423.7,501.4z"/>
			<path class="st3" d="M469.2,497.4c-16-5.3-19.8,14.5-35.7,13.2C451.6,512.1,453.6,493.9,469.2,497.4z"/>
			<path class="st3" d="M468.5,514.2c-4.1,0-7.5-3.4-7.2-6.8c0.2-2.8,2.4-3.5,4.4-3.6c1.8-0.1,3.5,1.2,4.3,2.5
				c-0.6-0.6-1.6-0.9-2.5-0.7c-1.6,0.3-2.8,1.7-2.5,3.3c0.3,1.5,1.8,2.6,3.4,2.3c1.6-0.3,2.6-1.7,2.6-3.3c0-2.6-2.8-4.6-5.1-4.8
				c-2.3-0.2-5.5,1.4-5.5,4.4c0.1,4.3,3.7,7.3,8.1,7.3c4.4,0,8.1-3.1,7.9-7c-0.2-4.7-4.4-9-10.5-9.3c-6.1-0.4-10.1,2.9-10.5,8.3
				c0,0,0,0,0,0c0.4-4.2,4.6-7.4,9.8-7.4c5.4,0,10.4,4.4,10.4,8.9C475.5,511.6,472.6,514.2,468.5,514.2z"/>
			<path class="st3" d="M441.2,506.7c-5.5,2.1-10.3-1.9-9.9-5.4c0.3-2.4,1.9-3.2,3.8-3.2c1.9,0,1.3,1.5,3.6,2.3
				c0.9-1.6-1.3-3.5-4.5-3.3c-2.8,0.2-3.7,2.6-3.7,4.4c0,4.1,4.5,7.2,9.9,6c5.3-1.2,10.2-8.7,17.8-11.4
				C447.9,500.4,446.7,504.5,441.2,506.7z"/>
			<path class="st3" d="M437.3,501.4c1-0.2,1.7-1.1,1.5-2c-0.2-0.9-1.1-1.6-2.1-1.4c-1,0.2-1.7,1.1-1.5,2
				C435.4,500.9,436.3,501.6,437.3,501.4z"/>
			<path class="st3" d="M430.6,517c0.5-0.1,0.8-0.5,0.7-0.9c-0.1-0.4-0.5-0.7-1-0.6c-0.5,0.1-0.8,0.5-0.7,0.9
				C429.8,516.8,430.2,517.1,430.6,517z"/>
			<path class="st3" d="M430.7,514.2c0.8-0.1,1.3-0.8,1.1-1.5c-0.1-0.7-0.8-1.2-1.6-1.1c-0.8,0.1-1.3,0.8-1.1,1.5
				C429.3,513.8,430,514.3,430.7,514.2z"/>
			<path class="st3" d="M430.6,491.7c0.5,0.1,0.8,0.5,0.7,0.9c-0.1,0.4-0.5,0.7-1,0.6c-0.5-0.1-0.8-0.5-0.7-0.9
				C429.8,491.9,430.2,491.6,430.6,491.7z"/>
			<path class="st3" d="M430.7,494.5c0.8,0.1,1.3,0.8,1.1,1.5c-0.1,0.7-0.8,1.2-1.6,1.1c-0.8-0.1-1.3-0.8-1.1-1.5
				C429.3,494.8,430,494.4,430.7,494.5z"/>
			<path class="st3" d="M430.8,510.3c1-0.2,1.8-1.1,1.6-2.1c-0.2-1-1.1-1.7-2.2-1.5c-1.1,0.2-1.8,1.1-1.6,2.1
				C428.8,509.9,429.8,510.5,430.8,510.3z"/>
		</g>
	</g>
</g>
</svg>
